<?xml version="1.0" encoding="utf-8" standalone="no"?>
<!DOCTYPE svg PUBLIC "-//W3C//DTD SVG 1.1//EN"
  "http://www.w3.org/Graphics/SVG/1.1/DTD/svg11.dtd">
<svg xmlns:xlink="http://www.w3.org/1999/xlink" width="564.362437pt" height="423.271828pt" viewBox="0 0 564.362437 423.271828" xmlns="http://www.w3.org/2000/svg" version="1.1">
 <metadata>
  <rdf:RDF xmlns:dc="http://purl.org/dc/elements/1.1/" xmlns:cc="http://creativecommons.org/ns#" xmlns:rdf="http://www.w3.org/1999/02/22-rdf-syntax-ns#">
   <cc:Work>
    <dc:type rdf:resource="http://purl.org/dc/dcmitype/StillImage"/>
    <dc:date>2022-04-29T12:46:39.887194</dc:date>
    <dc:format>image/svg+xml</dc:format>
    <dc:creator>
     <cc:Agent>
      <dc:title>Matplotlib v3.5.1, https://matplotlib.org/</dc:title>
     </cc:Agent>
    </dc:creator>
   </cc:Work>
  </rdf:RDF>
 </metadata>
 <defs>
  <style type="text/css">*{stroke-linejoin: round; stroke-linecap: butt}</style>
 </defs>
 <g id="figure_1">
  <g id="patch_1">
   <path d="M 0 423.271828 
L 564.362437 423.271828 
L 564.362437 0 
L 0 0 
L 0 423.271828 
z
" style="fill: none"/>
  </g>
  <g id="axes_1">
   <g id="patch_2">
    <path d="M 70.545305 196.051815 
L 507.926193 196.051815 
L 507.926193 50.792619 
L 70.545305 50.792619 
z
" style="fill: #ffffff"/>
   </g>
   <g id="PolyCollection_1">
    <defs>
     <path id="m88dabbd304" d="M 172.916028 -341.270386 
L 172.916028 -233.822704 
L 176.507304 -233.822704 
L 180.098579 -233.822704 
L 183.689855 -233.822704 
L 187.281131 -233.822704 
L 190.872407 -233.822704 
L 194.463683 -233.822704 
L 198.054959 -233.822704 
L 201.646235 -233.822704 
L 205.237511 -233.822704 
L 208.828787 -233.822704 
L 212.420063 -233.822704 
L 216.011339 -233.822704 
L 219.602615 -233.822704 
L 223.193891 -233.822704 
L 226.785167 -233.822704 
L 230.376443 -233.822704 
L 233.967719 -233.822704 
L 237.558995 -233.822704 
L 241.150271 -233.822704 
L 244.741547 -233.822704 
L 248.332823 -233.822704 
L 251.924099 -233.822704 
L 255.515375 -233.822704 
L 259.106651 -233.822704 
L 262.697927 -233.822704 
L 266.289203 -233.822704 
L 269.880479 -233.822704 
L 273.471755 -233.822704 
L 277.063031 -233.822704 
L 280.654307 -233.822704 
L 284.245583 -233.822704 
L 287.836859 -233.822704 
L 291.428135 -233.822704 
L 295.019411 -233.822704 
L 298.610687 -233.822704 
L 302.201963 -233.822704 
L 305.793239 -233.822704 
L 309.384515 -233.822704 
L 312.975791 -233.822704 
L 316.567067 -233.822704 
L 320.158343 -233.822704 
L 323.749619 -233.822704 
L 327.340895 -233.822704 
L 330.932171 -233.822704 
L 334.523447 -233.822704 
L 338.114723 -233.822704 
L 341.705999 -233.822704 
L 345.297275 -233.822704 
L 348.888551 -233.822704 
L 352.479827 -233.822704 
L 356.071103 -233.822704 
L 359.662379 -233.822704 
L 363.253655 -233.822704 
L 366.844931 -233.822704 
L 370.436207 -233.822704 
L 374.027483 -233.822704 
L 377.618759 -233.822704 
L 381.210035 -233.822704 
L 384.801311 -233.822704 
L 388.392587 -233.822704 
L 391.983862 -233.822704 
L 395.575138 -233.822704 
L 399.166414 -233.822704 
L 402.75769 -233.822704 
L 406.348966 -233.822704 
L 406.348966 -340.050885 
L 406.348966 -340.050885 
L 402.75769 -345.413438 
L 399.166414 -350.31873 
L 395.575138 -354.678187 
L 391.983862 -358.410728 
L 388.392587 -361.445306 
L 384.801311 -363.723201 
L 381.210035 -365.199975 
L 377.618759 -365.846993 
L 374.027483 -365.652459 
L 370.436207 -364.621896 
L 366.844931 -362.778087 
L 363.253655 -360.160451 
L 359.662379 -356.823909 
L 356.071103 -352.837291 
L 352.479827 -348.281359 
L 348.888551 -343.246547 
L 345.297275 -337.830509 
L 341.705999 -332.1356 
L 338.114723 -326.266371 
L 334.523447 -320.3272 
L 330.932171 -314.420118 
L 327.340895 -308.642908 
L 323.749619 -303.08752 
L 320.158343 -297.838823 
L 316.567067 -292.973697 
L 312.975791 -288.56044 
L 309.384515 -284.658468 
L 305.793239 -281.31824 
L 302.201963 -278.581368 
L 298.610687 -276.480835 
L 295.019411 -275.041259 
L 291.428135 -274.279161 
L 287.836859 -274.20317 
L 284.245583 -274.814141 
L 280.654307 -276.10517 
L 277.063031 -278.061495 
L 273.471755 -280.660309 
L 269.880479 -283.8705 
L 266.289203 -287.652384 
L 262.697927 -291.957472 
L 259.106651 -296.728327 
L 255.515375 -301.898597 
L 251.924099 -307.393257 
L 248.332823 -313.129138 
L 244.741547 -319.015759 
L 241.150271 -324.9565 
L 237.558995 -330.850116 
L 233.967719 -336.59257 
L 230.376443 -342.079149 
L 226.785167 -347.206802 
L 223.193891 -351.876618 
L 219.602615 -355.996353 
L 216.011339 -359.482905 
L 212.420063 -362.264626 
L 208.828787 -364.283369 
L 205.237511 -365.496177 
L 201.646235 -365.876518 
L 198.054959 -365.415028 
L 194.463683 -364.119703 
L 190.872407 -362.015525 
L 187.281131 -359.143555 
L 183.689855 -355.559513 
L 180.098579 -351.33191 
L 176.507304 -346.539819 
L 172.916028 -341.270386 
z
" style="stroke: #ff7f0e; stroke-opacity: 0.5"/>
    </defs>
    <g clip-path="url(#p6950a733bd)">
     <use xlink:href="#m88dabbd304" x="0" y="423.271828" style="fill: #ff7f0e; fill-opacity: 0.5; stroke: #ff7f0e; stroke-opacity: 0.5"/>
    </g>
   </g>
   <g id="matplotlib.axis_1">
    <g id="xtick_1">
     <g id="line2d_1">
      <defs>
       <path id="ma9390e6421" d="M 0 0 
L 0 3 
" style="stroke: #000000; stroke-width: 0.2"/>
      </defs>
      <g>
       <use xlink:href="#ma9390e6421" x="114.283393" y="196.051815" style="stroke: #000000; stroke-width: 0.2"/>
      </g>
     </g>
     <g id="text_1">
      <!-- −2 -->
      <g transform="translate(106.9123 210.150252)scale(0.1 -0.1)">
       <defs>
        <path id="DejaVuSerif-2212" d="M 678 2259 
L 4684 2259 
L 4684 1753 
L 678 1753 
L 678 2259 
z
" transform="scale(0.015625)"/>
        <path id="DejaVuSerif-32" d="M 819 3553 
L 469 3553 
L 469 4384 
Q 803 4563 1142 4656 
Q 1481 4750 1806 4750 
Q 2534 4750 2956 4397 
Q 3378 4044 3378 3438 
Q 3378 2753 2422 1800 
Q 2347 1728 2309 1691 
L 1131 513 
L 3078 513 
L 3078 1088 
L 3444 1088 
L 3444 0 
L 434 0 
L 434 341 
L 1850 1753 
Q 2319 2222 2519 2614 
Q 2719 3006 2719 3438 
Q 2719 3909 2473 4175 
Q 2228 4441 1797 4441 
Q 1350 4441 1106 4219 
Q 863 3997 819 3553 
z
" transform="scale(0.015625)"/>
       </defs>
       <use xlink:href="#DejaVuSerif-2212"/>
       <use xlink:href="#DejaVuSerif-32" x="83.789062"/>
      </g>
     </g>
    </g>
    <g id="xtick_2">
     <g id="line2d_2">
      <g>
       <use xlink:href="#ma9390e6421" x="201.759571" y="196.051815" style="stroke: #000000; stroke-width: 0.2"/>
      </g>
     </g>
     <g id="text_2">
      <!-- 0 -->
      <g transform="translate(198.578321 210.150252)scale(0.1 -0.1)">
       <defs>
        <path id="DejaVuSerif-30" d="M 2034 219 
Q 2513 219 2750 744 
Q 2988 1269 2988 2328 
Q 2988 3391 2750 3916 
Q 2513 4441 2034 4441 
Q 1556 4441 1318 3916 
Q 1081 3391 1081 2328 
Q 1081 1269 1318 744 
Q 1556 219 2034 219 
z
M 2034 -91 
Q 1275 -91 848 546 
Q 422 1184 422 2328 
Q 422 3475 848 4112 
Q 1275 4750 2034 4750 
Q 2797 4750 3222 4112 
Q 3647 3475 3647 2328 
Q 3647 1184 3222 546 
Q 2797 -91 2034 -91 
z
" transform="scale(0.015625)"/>
       </defs>
       <use xlink:href="#DejaVuSerif-30"/>
      </g>
     </g>
    </g>
    <g id="xtick_3">
     <g id="line2d_3">
      <g>
       <use xlink:href="#ma9390e6421" x="289.235749" y="196.051815" style="stroke: #000000; stroke-width: 0.2"/>
      </g>
     </g>
     <g id="text_3">
      <!-- 2 -->
      <g transform="translate(286.054499 210.150252)scale(0.1 -0.1)">
       <use xlink:href="#DejaVuSerif-32"/>
      </g>
     </g>
    </g>
    <g id="xtick_4">
     <g id="line2d_4">
      <g>
       <use xlink:href="#ma9390e6421" x="376.711927" y="196.051815" style="stroke: #000000; stroke-width: 0.2"/>
      </g>
     </g>
     <g id="text_4">
      <!-- 4 -->
      <g transform="translate(373.530677 210.150252)scale(0.1 -0.1)">
       <defs>
        <path id="DejaVuSerif-34" d="M 2234 1581 
L 2234 4063 
L 641 1581 
L 2234 1581 
z
M 3609 0 
L 1484 0 
L 1484 331 
L 2234 331 
L 2234 1247 
L 197 1247 
L 197 1588 
L 2241 4750 
L 2859 4750 
L 2859 1581 
L 3750 1581 
L 3750 1247 
L 2859 1247 
L 2859 331 
L 3609 331 
L 3609 0 
z
" transform="scale(0.015625)"/>
       </defs>
       <use xlink:href="#DejaVuSerif-34"/>
      </g>
     </g>
    </g>
    <g id="xtick_5">
     <g id="line2d_5">
      <g>
       <use xlink:href="#ma9390e6421" x="464.188104" y="196.051815" style="stroke: #000000; stroke-width: 0.2"/>
      </g>
     </g>
     <g id="text_5">
      <!-- 6 -->
      <g transform="translate(461.006854 210.150252)scale(0.1 -0.1)">
       <defs>
        <path id="DejaVuSerif-36" d="M 2094 219 
Q 2534 219 2771 542 
Q 3009 866 3009 1472 
Q 3009 2078 2771 2401 
Q 2534 2725 2094 2725 
Q 1647 2725 1412 2412 
Q 1178 2100 1178 1509 
Q 1178 888 1415 553 
Q 1653 219 2094 219 
z
M 1075 2569 
Q 1288 2803 1556 2918 
Q 1825 3034 2163 3034 
Q 2859 3034 3264 2615 
Q 3669 2197 3669 1472 
Q 3669 763 3233 336 
Q 2797 -91 2069 -91 
Q 1278 -91 853 498 
Q 428 1088 428 2181 
Q 428 3406 931 4078 
Q 1434 4750 2350 4750 
Q 2597 4750 2869 4703 
Q 3141 4656 3425 4563 
L 3425 3794 
L 3072 3794 
Q 3034 4109 2831 4275 
Q 2628 4441 2284 4441 
Q 1678 4441 1381 3981 
Q 1084 3522 1075 2569 
z
" transform="scale(0.015625)"/>
       </defs>
       <use xlink:href="#DejaVuSerif-36"/>
      </g>
     </g>
    </g>
   </g>
   <g id="matplotlib.axis_2">
    <g id="ytick_1">
     <g id="line2d_6">
      <defs>
       <path id="me2645b8cee" d="M 0 0 
L -3 0 
" style="stroke: #000000; stroke-width: 0.2"/>
      </defs>
      <g>
       <use xlink:href="#me2645b8cee" x="70.545305" y="183.146943" style="stroke: #000000; stroke-width: 0.2"/>
      </g>
     </g>
     <g id="text_6">
      <!-- 0.00 -->
      <g transform="translate(41.77968 186.946162)scale(0.1 -0.1)">
       <defs>
        <path id="DejaVuSerif-2e" d="M 603 325 
Q 603 500 722 622 
Q 841 744 1019 744 
Q 1191 744 1312 622 
Q 1434 500 1434 325 
Q 1434 153 1312 31 
Q 1191 -91 1019 -91 
Q 841 -91 722 29 
Q 603 150 603 325 
z
" transform="scale(0.015625)"/>
       </defs>
       <use xlink:href="#DejaVuSerif-30"/>
       <use xlink:href="#DejaVuSerif-2e" x="63.623047"/>
       <use xlink:href="#DejaVuSerif-30" x="95.410156"/>
       <use xlink:href="#DejaVuSerif-30" x="159.033203"/>
      </g>
     </g>
    </g>
    <g id="ytick_2">
     <g id="line2d_7">
      <g>
       <use xlink:href="#me2645b8cee" x="70.545305" y="151.636039" style="stroke: #000000; stroke-width: 0.2"/>
      </g>
     </g>
     <g id="text_7">
      <!-- 0.05 -->
      <g transform="translate(41.77968 155.435258)scale(0.1 -0.1)">
       <defs>
        <path id="DejaVuSerif-35" d="M 3219 4666 
L 3219 4153 
L 1081 4153 
L 1081 2816 
Q 1244 2928 1461 2984 
Q 1678 3041 1947 3041 
Q 2703 3041 3140 2622 
Q 3578 2203 3578 1478 
Q 3578 738 3136 323 
Q 2694 -91 1894 -91 
Q 1572 -91 1234 -12 
Q 897 66 544 225 
L 544 1131 
L 897 1131 
Q 925 688 1179 453 
Q 1434 219 1894 219 
Q 2388 219 2653 544 
Q 2919 869 2919 1478 
Q 2919 2084 2655 2407 
Q 2391 2731 1894 2731 
Q 1613 2731 1398 2631 
Q 1184 2531 1019 2322 
L 750 2322 
L 750 4666 
L 3219 4666 
z
" transform="scale(0.015625)"/>
       </defs>
       <use xlink:href="#DejaVuSerif-30"/>
       <use xlink:href="#DejaVuSerif-2e" x="63.623047"/>
       <use xlink:href="#DejaVuSerif-30" x="95.410156"/>
       <use xlink:href="#DejaVuSerif-35" x="159.033203"/>
      </g>
     </g>
    </g>
    <g id="ytick_3">
     <g id="line2d_8">
      <g>
       <use xlink:href="#me2645b8cee" x="70.545305" y="120.125135" style="stroke: #000000; stroke-width: 0.2"/>
      </g>
     </g>
     <g id="text_8">
      <!-- 0.10 -->
      <g transform="translate(41.77968 123.924354)scale(0.1 -0.1)">
       <defs>
        <path id="DejaVuSerif-31" d="M 909 0 
L 909 331 
L 1722 331 
L 1722 4213 
L 781 3603 
L 781 4013 
L 1919 4750 
L 2350 4750 
L 2350 331 
L 3163 331 
L 3163 0 
L 909 0 
z
" transform="scale(0.015625)"/>
       </defs>
       <use xlink:href="#DejaVuSerif-30"/>
       <use xlink:href="#DejaVuSerif-2e" x="63.623047"/>
       <use xlink:href="#DejaVuSerif-31" x="95.410156"/>
       <use xlink:href="#DejaVuSerif-30" x="159.033203"/>
      </g>
     </g>
    </g>
    <g id="ytick_4">
     <g id="line2d_9">
      <g>
       <use xlink:href="#me2645b8cee" x="70.545305" y="88.614231" style="stroke: #000000; stroke-width: 0.2"/>
      </g>
     </g>
     <g id="text_9">
      <!-- 0.15 -->
      <g transform="translate(41.77968 92.41345)scale(0.1 -0.1)">
       <use xlink:href="#DejaVuSerif-30"/>
       <use xlink:href="#DejaVuSerif-2e" x="63.623047"/>
       <use xlink:href="#DejaVuSerif-31" x="95.410156"/>
       <use xlink:href="#DejaVuSerif-35" x="159.033203"/>
      </g>
     </g>
    </g>
    <g id="ytick_5">
     <g id="line2d_10">
      <g>
       <use xlink:href="#me2645b8cee" x="70.545305" y="57.103327" style="stroke: #000000; stroke-width: 0.2"/>
      </g>
     </g>
     <g id="text_10">
      <!-- 0.20 -->
      <g transform="translate(41.77968 60.902546)scale(0.1 -0.1)">
       <use xlink:href="#DejaVuSerif-30"/>
       <use xlink:href="#DejaVuSerif-2e" x="63.623047"/>
       <use xlink:href="#DejaVuSerif-32" x="95.410156"/>
       <use xlink:href="#DejaVuSerif-30" x="159.033203"/>
      </g>
     </g>
    </g>
    <g id="text_11">
     <!-- $f(\theta)$ -->
     <g transform="translate(35.67968 132.222217)rotate(-90)scale(0.1 -0.1)">
      <defs>
       <path id="DejaVuSerif-Italic-66" d="M 3191 4078 
L 2888 4078 
Q 2900 4144 2900 4203 
Q 2900 4347 2825 4434 
Q 2719 4556 2472 4556 
Q 2150 4556 1984 4379 
Q 1819 4203 1731 3750 
L 1647 3322 
L 2575 3322 
L 2509 2988 
L 1581 2988 
L 963 -206 
Q 853 -763 509 -1047 
Q 166 -1331 -394 -1331 
L -356 -1025 
Q -28 -1025 131 -850 
Q 297 -663 388 -206 
L 1006 2988 
L 456 2988 
L 522 3322 
L 1072 3322 
L 1153 3738 
Q 1263 4297 1606 4578 
Q 1950 4863 2509 4863 
Q 2719 4863 2920 4825 
Q 3122 4788 3316 4709 
L 3191 4078 
z
" transform="scale(0.015625)"/>
       <path id="DejaVuSerif-28" d="M 2041 -997 
Q 1281 -656 893 83 
Q 506 822 506 1931 
Q 506 3044 893 3783 
Q 1281 4522 2041 4863 
L 2041 4556 
Q 1559 4225 1350 3623 
Q 1141 3022 1141 1931 
Q 1141 844 1350 242 
Q 1559 -359 2041 -691 
L 2041 -997 
z
" transform="scale(0.015625)"/>
       <path id="DejaVuSerif-Italic-3b8" d="M 2888 2600 
Q 3059 3603 2947 4113 
Q 2822 4678 2359 4678 
Q 1900 4678 1553 4113 
Q 1244 3603 1025 2600 
L 2888 2600 
z
M 2822 2266 
L 959 2266 
Q 791 1269 903 759 
Q 1031 191 1488 191 
Q 1947 191 2294 759 
Q 2603 1269 2822 2266 
z
M 2409 4931 
Q 3138 4931 3444 4248 
Q 3750 3566 3529 2433 
Q 3309 1300 2734 615 
Q 2159 -69 1434 -69 
Q 713 -69 406 615 
Q 100 1300 320 2433 
Q 541 3566 1112 4248 
Q 1684 4931 2409 4931 
z
" transform="scale(0.015625)"/>
       <path id="DejaVuSerif-29" d="M 453 -997 
L 453 -691 
Q 934 -359 1145 242 
Q 1356 844 1356 1931 
Q 1356 3022 1145 3623 
Q 934 4225 453 4556 
L 453 4863 
Q 1216 4522 1603 3783 
Q 1991 3044 1991 1931 
Q 1991 822 1603 83 
Q 1216 -656 453 -997 
z
" transform="scale(0.015625)"/>
      </defs>
      <use xlink:href="#DejaVuSerif-Italic-66" transform="translate(0 0.953125)"/>
      <use xlink:href="#DejaVuSerif-28" transform="translate(37.011719 0.953125)"/>
      <use xlink:href="#DejaVuSerif-Italic-3b8" transform="translate(76.025391 0.953125)"/>
      <use xlink:href="#DejaVuSerif-29" transform="translate(136.230469 0.953125)"/>
     </g>
    </g>
   </g>
   <g id="line2d_11">
    <path d="M 26.807216 183.104772 
L 44.390367 182.952727 
L 54.940258 182.697623 
L 61.973518 182.385975 
L 69.006779 181.891066 
L 76.040039 181.127194 
L 83.0733 179.98162 
L 86.58993 179.2226 
L 90.10656 178.312922 
L 93.623191 177.230747 
L 97.139821 175.952964 
L 100.656451 174.455574 
L 104.173081 172.714169 
L 107.689712 170.704551 
L 111.206342 168.403446 
L 114.722972 165.789345 
L 118.239602 162.843427 
L 121.756233 159.550562 
L 125.272863 155.900358 
L 128.789493 151.888216 
L 132.306124 147.516353 
L 135.822754 142.794737 
L 139.339384 137.741899 
L 142.856014 132.385557 
L 146.372645 126.763002 
L 153.405905 114.916656 
L 167.472426 90.691224 
L 170.989056 84.993518 
L 174.505687 79.615907 
L 178.022317 74.64702 
L 181.538947 70.171893 
L 185.055577 66.269538 
L 188.572208 63.010607 
L 192.088838 60.455219 
L 195.605468 58.651075 
L 199.122098 57.631902 
L 202.638729 57.416324 
L 206.155359 58.007187 
L 209.671989 59.391371 
L 213.188619 61.540097 
L 216.70525 64.409705 
L 220.22188 67.94287 
L 223.73851 72.070191 
L 227.255141 76.712084 
L 230.771771 81.780902 
L 234.288401 87.183166 
L 241.321662 98.59859 
L 248.354922 110.178542 
L 251.871552 115.796171 
L 255.388183 121.1837 
L 258.904813 126.26285 
L 262.421443 130.962815 
L 265.938073 135.220741 
L 269.454704 138.981963 
L 272.971334 142.200048 
L 276.487964 144.836682 
L 280.004594 146.861467 
L 283.521225 148.251676 
L 287.037855 148.992022 
L 290.554485 149.074468 
L 294.071115 148.498124 
L 297.587746 147.269233 
L 301.104376 145.401256 
L 304.621006 142.915039 
L 308.137636 139.839037 
L 311.654267 136.209566 
L 315.170897 132.071014 
L 318.687527 127.475984 
L 322.204158 122.485296 
L 325.720788 117.167804 
L 332.754048 105.865219 
L 343.303939 88.574508 
L 346.820569 83.103954 
L 350.3372 77.942834 
L 353.85383 73.185726 
L 357.37046 68.921948 
L 360.88709 65.233306 
L 364.403721 62.191933 
L 367.920351 59.858336 
L 371.436981 58.27972 
L 374.953611 57.488677 
L 378.470242 57.502287 
L 381.986872 58.321698 
L 385.503502 59.932188 
L 389.020132 62.303714 
L 392.536763 65.391941 
L 396.053393 69.139687 
L 399.570023 73.47874 
L 403.086653 78.331965 
L 406.603284 83.615605 
L 410.119914 89.241702 
L 417.153175 101.162906 
L 427.703065 119.432927 
L 434.736326 131.003206 
L 438.252956 136.429976 
L 441.769586 141.561658 
L 445.286217 146.368166 
L 448.802847 150.828724 
L 452.319477 154.931291 
L 455.836107 158.671798 
L 459.352738 162.053232 
L 462.869368 165.084636 
L 466.385998 167.780053 
L 469.902628 170.157479 
L 473.419259 172.237841 
L 476.935889 174.044053 
L 480.452519 175.600156 
L 483.969149 176.930565 
L 487.48578 178.059433 
L 491.00241 179.010133 
L 494.51904 179.804851 
L 498.03567 180.464294 
L 505.068931 181.4517 
L 512.102191 182.103016 
L 519.135452 182.520504 
L 529.685343 182.869525 
L 543.751864 183.061403 
L 565.362437 183.135395 
L 565.362437 183.135395 
" clip-path="url(#p6950a733bd)" style="fill: none; stroke: #1f77b4; stroke-width: 1.5; stroke-linecap: square"/>
   </g>
   <g id="patch_3">
    <path d="M 70.545305 196.051815 
L 70.545305 50.792619 
" style="fill: none; stroke: #000000; stroke-width: 0.2; stroke-linejoin: miter; stroke-linecap: square"/>
   </g>
   <g id="patch_4">
    <path d="M 507.926193 196.051815 
L 507.926193 50.792619 
" style="fill: none; stroke: #000000; stroke-width: 0.2; stroke-linejoin: miter; stroke-linecap: square"/>
   </g>
   <g id="patch_5">
    <path d="M 70.545305 196.051815 
L 507.926193 196.051815 
" style="fill: none; stroke: #000000; stroke-width: 0.2; stroke-linejoin: miter; stroke-linecap: square"/>
   </g>
   <g id="patch_6">
    <path d="M 70.545305 50.792619 
L 507.926193 50.792619 
" style="fill: none; stroke: #000000; stroke-width: 0.2; stroke-linejoin: miter; stroke-linecap: square"/>
   </g>
   <g id="legend_1">
    <g id="patch_7">
     <path d="M 425.457443 84.668557 
L 500.926193 84.668557 
Q 502.926193 84.668557 502.926193 82.668557 
L 502.926193 57.792619 
Q 502.926193 55.792619 500.926193 55.792619 
L 425.457443 55.792619 
Q 423.457443 55.792619 423.457443 57.792619 
L 423.457443 82.668557 
Q 423.457443 84.668557 425.457443 84.668557 
z
" style="fill: #ffffff; opacity: 0.8; stroke: #cccccc; stroke-linejoin: miter"/>
    </g>
    <g id="patch_8">
     <path d="M 427.457443 74.029807 
L 447.457443 74.029807 
L 447.457443 67.029807 
L 427.457443 67.029807 
z
" style="fill: #ff7f0e; fill-opacity: 0.5; stroke: #ff7f0e; stroke-opacity: 0.5; stroke-linejoin: miter"/>
    </g>
    <g id="text_12">
     <!-- Credible -->
     <g transform="translate(455.457443 67.391057)scale(0.1 -0.1)">
      <defs>
       <path id="DejaVuSerif-43" d="M 4513 1234 
Q 4306 581 3820 245 
Q 3334 -91 2591 -91 
Q 2134 -91 1743 65 
Q 1353 222 1050 525 
Q 700 875 529 1320 
Q 359 1766 359 2328 
Q 359 3416 987 4083 
Q 1616 4750 2644 4750 
Q 3025 4750 3456 4650 
Q 3888 4550 4384 4347 
L 4384 3272 
L 4031 3272 
Q 3916 3859 3567 4137 
Q 3219 4416 2591 4416 
Q 1844 4416 1459 3886 
Q 1075 3356 1075 2328 
Q 1075 1303 1459 773 
Q 1844 244 2591 244 
Q 3113 244 3450 492 
Q 3788 741 3938 1234 
L 4513 1234 
z
" transform="scale(0.015625)"/>
       <path id="DejaVuSerif-72" d="M 3059 3328 
L 3059 2497 
L 2728 2497 
Q 2713 2744 2591 2866 
Q 2469 2988 2234 2988 
Q 1809 2988 1582 2694 
Q 1356 2400 1356 1850 
L 1356 331 
L 2022 331 
L 2022 0 
L 263 0 
L 263 331 
L 781 331 
L 781 2994 
L 231 2994 
L 231 3322 
L 1356 3322 
L 1356 2731 
Q 1525 3078 1790 3245 
Q 2056 3413 2438 3413 
Q 2578 3413 2733 3391 
Q 2888 3369 3059 3328 
z
" transform="scale(0.015625)"/>
       <path id="DejaVuSerif-65" d="M 3469 1600 
L 991 1600 
L 991 1575 
Q 991 903 1244 561 
Q 1497 219 1991 219 
Q 2369 219 2611 417 
Q 2853 616 2950 1006 
L 3413 1006 
Q 3275 459 2904 184 
Q 2534 -91 1931 -91 
Q 1203 -91 761 389 
Q 319 869 319 1663 
Q 319 2450 753 2931 
Q 1188 3413 1894 3413 
Q 2647 3413 3050 2948 
Q 3453 2484 3469 1600 
z
M 2791 1931 
Q 2772 2513 2545 2808 
Q 2319 3103 1894 3103 
Q 1497 3103 1269 2806 
Q 1041 2509 991 1931 
L 2791 1931 
z
" transform="scale(0.015625)"/>
       <path id="DejaVuSerif-64" d="M 3359 331 
L 3909 331 
L 3909 0 
L 2784 0 
L 2784 519 
Q 2616 206 2355 57 
Q 2094 -91 1709 -91 
Q 1097 -91 708 395 
Q 319 881 319 1663 
Q 319 2444 706 2928 
Q 1094 3413 1709 3413 
Q 2094 3413 2355 3264 
Q 2616 3116 2784 2803 
L 2784 4531 
L 2241 4531 
L 2241 4863 
L 3359 4863 
L 3359 331 
z
M 2784 1497 
L 2784 1825 
Q 2784 2422 2554 2737 
Q 2325 3053 1888 3053 
Q 1444 3053 1217 2703 
Q 991 2353 991 1663 
Q 991 975 1217 622 
Q 1444 269 1888 269 
Q 2325 269 2554 583 
Q 2784 897 2784 1497 
z
" transform="scale(0.015625)"/>
       <path id="DejaVuSerif-69" d="M 622 4353 
Q 622 4497 726 4603 
Q 831 4709 978 4709 
Q 1122 4709 1226 4603 
Q 1331 4497 1331 4353 
Q 1331 4206 1228 4103 
Q 1125 4000 978 4000 
Q 831 4000 726 4103 
Q 622 4206 622 4353 
z
M 1356 331 
L 1900 331 
L 1900 0 
L 231 0 
L 231 331 
L 781 331 
L 781 2988 
L 231 2988 
L 231 3322 
L 1356 3322 
L 1356 331 
z
" transform="scale(0.015625)"/>
       <path id="DejaVuSerif-62" d="M 738 331 
L 738 4531 
L 184 4531 
L 184 4863 
L 1313 4863 
L 1313 2803 
Q 1481 3116 1742 3264 
Q 2003 3413 2388 3413 
Q 3000 3413 3387 2928 
Q 3775 2444 3775 1663 
Q 3775 881 3387 395 
Q 3000 -91 2388 -91 
Q 2003 -91 1742 57 
Q 1481 206 1313 519 
L 1313 0 
L 184 0 
L 184 331 
L 738 331 
z
M 1313 1497 
Q 1313 897 1542 583 
Q 1772 269 2209 269 
Q 2650 269 2876 622 
Q 3103 975 3103 1663 
Q 3103 2353 2876 2703 
Q 2650 3053 2209 3053 
Q 1772 3053 1542 2737 
Q 1313 2422 1313 1825 
L 1313 1497 
z
" transform="scale(0.015625)"/>
       <path id="DejaVuSerif-6c" d="M 1313 331 
L 1856 331 
L 1856 0 
L 184 0 
L 184 331 
L 738 331 
L 738 4531 
L 184 4531 
L 184 4863 
L 1313 4863 
L 1313 331 
z
" transform="scale(0.015625)"/>
      </defs>
      <use xlink:href="#DejaVuSerif-43"/>
      <use xlink:href="#DejaVuSerif-72" x="76.513672"/>
      <use xlink:href="#DejaVuSerif-65" x="124.316406"/>
      <use xlink:href="#DejaVuSerif-64" x="183.496094"/>
      <use xlink:href="#DejaVuSerif-69" x="247.509766"/>
      <use xlink:href="#DejaVuSerif-62" x="279.492188"/>
      <use xlink:href="#DejaVuSerif-6c" x="343.505859"/>
      <use xlink:href="#DejaVuSerif-65" x="375.488281"/>
     </g>
     <!-- interval -->
     <g transform="translate(455.457443 78.588869)scale(0.1 -0.1)">
      <defs>
       <path id="DejaVuSerif-6e" d="M 263 0 
L 263 331 
L 781 331 
L 781 2988 
L 231 2988 
L 231 3322 
L 1356 3322 
L 1356 2731 
Q 1516 3069 1770 3241 
Q 2025 3413 2363 3413 
Q 2913 3413 3172 3097 
Q 3431 2781 3431 2113 
L 3431 331 
L 3944 331 
L 3944 0 
L 2356 0 
L 2356 331 
L 2853 331 
L 2853 1931 
Q 2853 2541 2703 2767 
Q 2553 2994 2175 2994 
Q 1775 2994 1565 2701 
Q 1356 2409 1356 1850 
L 1356 331 
L 1856 331 
L 1856 0 
L 263 0 
z
" transform="scale(0.015625)"/>
       <path id="DejaVuSerif-74" d="M 691 2988 
L 184 2988 
L 184 3322 
L 691 3322 
L 691 4353 
L 1269 4353 
L 1269 3322 
L 2350 3322 
L 2350 2988 
L 1269 2988 
L 1269 878 
Q 1269 456 1350 337 
Q 1431 219 1650 219 
Q 1875 219 1978 351 
Q 2081 484 2088 781 
L 2522 781 
Q 2497 328 2275 118 
Q 2053 -91 1600 -91 
Q 1103 -91 897 129 
Q 691 350 691 878 
L 691 2988 
z
" transform="scale(0.015625)"/>
       <path id="DejaVuSerif-76" d="M 1581 0 
L 359 2988 
L -19 2988 
L -19 3322 
L 1509 3322 
L 1509 2988 
L 978 2988 
L 1913 703 
L 2847 2988 
L 2350 2988 
L 2350 3322 
L 3597 3322 
L 3597 2988 
L 3225 2988 
L 2003 0 
L 1581 0 
z
" transform="scale(0.015625)"/>
       <path id="DejaVuSerif-61" d="M 2547 1044 
L 2547 1747 
L 1806 1747 
Q 1378 1747 1168 1562 
Q 959 1378 959 997 
Q 959 650 1171 447 
Q 1384 244 1747 244 
Q 2106 244 2326 466 
Q 2547 688 2547 1044 
z
M 3122 2075 
L 3122 331 
L 3634 331 
L 3634 0 
L 2547 0 
L 2547 359 
Q 2356 128 2106 18 
Q 1856 -91 1522 -91 
Q 969 -91 644 203 
Q 319 497 319 997 
Q 319 1513 691 1797 
Q 1063 2081 1741 2081 
L 2547 2081 
L 2547 2309 
Q 2547 2688 2317 2895 
Q 2088 3103 1672 3103 
Q 1328 3103 1125 2947 
Q 922 2791 872 2484 
L 575 2484 
L 575 3156 
Q 875 3284 1158 3348 
Q 1441 3413 1709 3413 
Q 2400 3413 2761 3070 
Q 3122 2728 3122 2075 
z
" transform="scale(0.015625)"/>
      </defs>
      <use xlink:href="#DejaVuSerif-69"/>
      <use xlink:href="#DejaVuSerif-6e" x="31.982422"/>
      <use xlink:href="#DejaVuSerif-74" x="96.386719"/>
      <use xlink:href="#DejaVuSerif-65" x="136.572266"/>
      <use xlink:href="#DejaVuSerif-72" x="195.751953"/>
      <use xlink:href="#DejaVuSerif-76" x="243.554688"/>
      <use xlink:href="#DejaVuSerif-61" x="300.048828"/>
      <use xlink:href="#DejaVuSerif-6c" x="359.667969"/>
     </g>
    </g>
   </g>
  </g>
  <g id="axes_2">
   <g id="patch_9">
    <path d="M 70.545305 370.362849 
L 507.926193 370.362849 
L 507.926193 225.103654 
L 70.545305 225.103654 
z
" style="fill: #ffffff"/>
   </g>
   <g id="PolyCollection_2">
    <defs>
     <path id="mb5c549dc0a" d="M 152.456987 -129.458527 
L 152.456987 -59.511669 
L 156.156855 -59.511669 
L 159.856723 -59.511669 
L 163.55659 -59.511669 
L 167.256458 -59.511669 
L 170.956326 -59.511669 
L 174.656194 -59.511669 
L 178.356062 -59.511669 
L 182.055929 -59.511669 
L 185.755797 -59.511669 
L 189.455665 -59.511669 
L 193.155533 -59.511669 
L 196.855401 -59.511669 
L 200.555268 -59.511669 
L 204.255136 -59.511669 
L 207.955004 -59.511669 
L 211.654872 -59.511669 
L 215.35474 -59.511669 
L 219.054607 -59.511669 
L 222.754475 -59.511669 
L 226.454343 -59.511669 
L 230.154211 -59.511669 
L 233.854079 -59.511669 
L 237.553947 -59.511669 
L 241.253814 -59.511669 
L 244.953682 -59.511669 
L 248.65355 -59.511669 
L 252.353418 -59.511669 
L 252.353418 -129.45806 
L 252.353418 -129.45806 
L 248.65355 -135.641516 
L 244.953682 -142.002284 
L 241.253814 -148.42988 
L 237.553947 -154.808234 
L 233.854079 -161.01791 
L 230.154211 -166.938677 
L 226.454343 -172.452363 
L 222.754475 -177.445879 
L 219.054607 -181.8143 
L 215.35474 -185.463861 
L 211.654872 -188.314742 
L 207.955004 -190.30349 
L 204.255136 -191.384978 
L 200.555268 -191.53378 
L 196.855401 -190.744903 
L 193.155533 -189.033821 
L 189.455665 -186.435815 
L 185.755797 -183.004637 
L 182.055929 -178.810562 
L 178.356062 -173.937927 
L 174.656194 -168.482251 
L 170.956326 -162.547095 
L 167.256458 -156.240779 
L 163.55659 -149.67311 
L 159.856723 -142.952251 
L 156.156855 -136.181849 
L 152.456987 -129.458527 
z
" style="stroke: #ff7f0e; stroke-opacity: 0.5"/>
    </defs>
    <g clip-path="url(#pc7435f2ac1)">
     <use xlink:href="#mb5c549dc0a" x="0" y="423.271828" style="fill: #ff7f0e; fill-opacity: 0.5; stroke: #ff7f0e; stroke-opacity: 0.5"/>
    </g>
   </g>
   <g id="PolyCollection_3">
    <defs>
     <path id="mebbb0bd2d1" d="M 326.120452 -129.461945 
L 326.120452 -59.511669 
L 329.820258 -59.511669 
L 333.520064 -59.511669 
L 337.219869 -59.511669 
L 340.919675 -59.511669 
L 344.619481 -59.511669 
L 348.319287 -59.511669 
L 352.019093 -59.511669 
L 355.718899 -59.511669 
L 359.418705 -59.511669 
L 363.118511 -59.511669 
L 366.818317 -59.511669 
L 370.518123 -59.511669 
L 374.217929 -59.511669 
L 377.917734 -59.511669 
L 381.61754 -59.511669 
L 385.317346 -59.511669 
L 389.017152 -59.511669 
L 392.716958 -59.511669 
L 396.416764 -59.511669 
L 400.11657 -59.511669 
L 403.816376 -59.511669 
L 407.516182 -59.511669 
L 411.215988 -59.511669 
L 414.915794 -59.511669 
L 418.615599 -59.511669 
L 422.315405 -59.511669 
L 426.015211 -59.511669 
L 426.015211 -129.457265 
L 426.015211 -129.457265 
L 422.315405 -136.180455 
L 418.615599 -142.950744 
L 414.915794 -149.671514 
L 411.215988 -156.239125 
L 407.516182 -162.545419 
L 403.816376 -168.480596 
L 400.11657 -173.936339 
L 396.416764 -178.809092 
L 392.716958 -183.003336 
L 389.017152 -186.434736 
L 385.317346 -189.033013 
L 381.61754 -190.744413 
L 377.917734 -191.533649 
L 374.217929 -191.385239 
L 370.518123 -190.304169 
L 366.818317 -188.315852 
L 363.118511 -185.465407 
L 359.418705 -181.816273 
L 355.718899 -177.448262 
L 352.019093 -172.455125 
L 348.319287 -166.941779 
L 344.619481 -161.021302 
L 340.919675 -154.81186 
L 337.219869 -148.433675 
L 333.520064 -142.006181 
L 329.820258 -135.645443 
L 326.120452 -129.461945 
z
" style="stroke: #ff7f0e; stroke-opacity: 0.5"/>
    </defs>
    <g clip-path="url(#pc7435f2ac1)">
     <use xlink:href="#mebbb0bd2d1" x="0" y="423.271828" style="fill: #ff7f0e; fill-opacity: 0.5; stroke: #ff7f0e; stroke-opacity: 0.5"/>
    </g>
   </g>
   <g id="matplotlib.axis_3">
    <g id="xtick_6">
     <g id="line2d_12">
      <g>
       <use xlink:href="#ma9390e6421" x="114.283393" y="370.362849" style="stroke: #000000; stroke-width: 0.2"/>
      </g>
     </g>
     <g id="text_13">
      <!-- −2 -->
      <g transform="translate(106.9123 384.461287)scale(0.1 -0.1)">
       <use xlink:href="#DejaVuSerif-2212"/>
       <use xlink:href="#DejaVuSerif-32" x="83.789062"/>
      </g>
     </g>
    </g>
    <g id="xtick_7">
     <g id="line2d_13">
      <g>
       <use xlink:href="#ma9390e6421" x="201.759571" y="370.362849" style="stroke: #000000; stroke-width: 0.2"/>
      </g>
     </g>
     <g id="text_14">
      <!-- 0 -->
      <g transform="translate(198.578321 384.461287)scale(0.1 -0.1)">
       <use xlink:href="#DejaVuSerif-30"/>
      </g>
     </g>
    </g>
    <g id="xtick_8">
     <g id="line2d_14">
      <g>
       <use xlink:href="#ma9390e6421" x="289.235749" y="370.362849" style="stroke: #000000; stroke-width: 0.2"/>
      </g>
     </g>
     <g id="text_15">
      <!-- 2 -->
      <g transform="translate(286.054499 384.461287)scale(0.1 -0.1)">
       <use xlink:href="#DejaVuSerif-32"/>
      </g>
     </g>
    </g>
    <g id="xtick_9">
     <g id="line2d_15">
      <g>
       <use xlink:href="#ma9390e6421" x="376.711927" y="370.362849" style="stroke: #000000; stroke-width: 0.2"/>
      </g>
     </g>
     <g id="text_16">
      <!-- 4 -->
      <g transform="translate(373.530677 384.461287)scale(0.1 -0.1)">
       <use xlink:href="#DejaVuSerif-34"/>
      </g>
     </g>
    </g>
    <g id="xtick_10">
     <g id="line2d_16">
      <g>
       <use xlink:href="#ma9390e6421" x="464.188104" y="370.362849" style="stroke: #000000; stroke-width: 0.2"/>
      </g>
     </g>
     <g id="text_17">
      <!-- 6 -->
      <g transform="translate(461.006854 384.461287)scale(0.1 -0.1)">
       <use xlink:href="#DejaVuSerif-36"/>
      </g>
     </g>
    </g>
    <g id="text_18">
     <!-- $\theta$ -->
     <g transform="translate(286.185749 398.139412)scale(0.1 -0.1)">
      <use xlink:href="#DejaVuSerif-Italic-3b8" transform="translate(0 0.953125)"/>
     </g>
    </g>
   </g>
   <g id="matplotlib.axis_4">
    <g id="ytick_6">
     <g id="line2d_17">
      <g>
       <use xlink:href="#me2645b8cee" x="70.545305" y="363.760158" style="stroke: #000000; stroke-width: 0.2"/>
      </g>
     </g>
     <g id="text_19">
      <!-- 0 -->
      <g transform="translate(57.682805 367.559377)scale(0.1 -0.1)">
       <use xlink:href="#DejaVuSerif-30"/>
      </g>
     </g>
    </g>
    <g id="ytick_7">
     <g id="line2d_18">
      <g>
       <use xlink:href="#me2645b8cee" x="70.545305" y="293.814586" style="stroke: #000000; stroke-width: 0.2"/>
      </g>
     </g>
     <g id="text_20">
      <!-- $p_{\alpha}$ -->
      <g transform="translate(52.645305 297.603649)scale(0.1 -0.1)">
       <defs>
        <path id="DejaVuSerif-Italic-70" d="M 1466 1825 
L 1400 1497 
Q 1353 1250 1353 1053 
Q 1353 769 1453 581 
Q 1622 269 2059 269 
Q 2500 269 2795 622 
Q 3091 975 3225 1663 
Q 3284 1978 3284 2225 
Q 3284 2513 3200 2703 
Q 3041 3053 2600 3053 
Q 2163 3053 1872 2737 
Q 1581 2422 1466 1825 
z
M 1116 2988 
L 563 2988 
L 628 3322 
L 1756 3322 
L 1656 2803 
Q 1884 3116 2175 3264 
Q 2466 3413 2850 3413 
Q 3463 3413 3753 2928 
Q 3947 2609 3947 2163 
Q 3947 1928 3897 1663 
Q 3744 881 3262 395 
Q 2781 -91 2169 -91 
Q 1784 -91 1551 57 
Q 1319 206 1213 519 
L 850 -1331 
L 275 -1331 
L 1116 2988 
z
" transform="scale(0.015625)"/>
        <path id="DejaVuSerif-Italic-3b1" d="M 2597 819 
L 2406 472 
Q 2259 206 1925 31 
Q 1719 -78 1388 -78 
Q 1378 -78 1369 -78 
Q 753 -75 463 406 
Q 269 728 269 1175 
Q 269 1409 322 1675 
Q 472 2441 953 2941 
Q 1406 3409 2172 3409 
Q 2713 3409 2941 3200 
Q 3144 3013 3156 2613 
L 3159 2497 
L 3347 2844 
Q 3525 3172 3878 3334 
L 4194 3334 
L 4156 3150 
Q 3838 3056 3675 2763 
L 3178 1875 
L 3213 919 
Q 3228 428 3338 375 
Q 3375 356 3434 356 
Q 3603 356 3928 531 
L 3856 153 
Q 3509 -25 3244 -25 
Q 2966 -25 2778 169 
Q 2609 344 2603 597 
L 2597 819 
z
M 2581 1431 
L 2566 2350 
Q 2550 3081 2119 3084 
Q 1763 3084 1419 2703 
Q 1131 2388 991 1663 
Q 928 1347 928 1103 
Q 928 813 1016 622 
Q 1175 266 1550 266 
Q 1963 266 2384 1063 
L 2581 1431 
z
" transform="scale(0.015625)"/>
       </defs>
       <use xlink:href="#DejaVuSerif-Italic-70" transform="translate(0 0.671875)"/>
       <use xlink:href="#DejaVuSerif-Italic-3b1" transform="translate(64.013672 -14.9)scale(0.7)"/>
      </g>
     </g>
    </g>
    <g id="ytick_8">
     <g id="line2d_19">
      <g>
       <use xlink:href="#me2645b8cee" x="70.545305" y="231.377606" style="stroke: #000000; stroke-width: 0.2"/>
      </g>
     </g>
     <g id="text_21">
      <!-- 0.2 -->
      <g transform="translate(48.14218 235.176825)scale(0.1 -0.1)">
       <use xlink:href="#DejaVuSerif-30"/>
       <use xlink:href="#DejaVuSerif-2e" x="63.623047"/>
       <use xlink:href="#DejaVuSerif-32" x="95.410156"/>
      </g>
     </g>
    </g>
    <g id="text_22">
     <!-- $f(\theta)$ -->
     <g transform="translate(42.04218 306.533251)rotate(-90)scale(0.1 -0.1)">
      <use xlink:href="#DejaVuSerif-Italic-66" transform="translate(0 0.953125)"/>
      <use xlink:href="#DejaVuSerif-28" transform="translate(37.011719 0.953125)"/>
      <use xlink:href="#DejaVuSerif-Italic-3b8" transform="translate(76.025391 0.953125)"/>
      <use xlink:href="#DejaVuSerif-29" transform="translate(136.230469 0.953125)"/>
     </g>
    </g>
   </g>
   <g id="line2d_20">
    <path d="M 26.807216 363.715866 
L 44.390367 363.556175 
L 54.940258 363.288241 
L 61.973518 362.96092 
L 69.006779 362.441122 
L 76.040039 361.638833 
L 79.55667 361.095931 
L 83.0733 360.435647 
L 86.58993 359.638453 
L 90.10656 358.683027 
L 93.623191 357.546427 
L 97.139821 356.204383 
L 100.656451 354.631686 
L 104.173081 352.802703 
L 107.689712 350.692018 
L 111.206342 348.275187 
L 114.722972 345.529619 
L 118.239602 342.435546 
L 121.756233 338.977077 
L 125.272863 335.143298 
L 128.789493 330.92938 
L 132.306124 326.337648 
L 135.822754 321.378575 
L 139.339384 316.071622 
L 142.856014 310.4459 
L 146.372645 304.540578 
L 153.405905 292.098461 
L 167.472426 266.654692 
L 170.989056 260.670439 
L 174.505687 255.022379 
L 178.022317 249.803599 
L 181.538947 245.103411 
L 185.055577 241.004801 
L 188.572208 237.581972 
L 192.088838 234.89807 
L 195.605468 233.003193 
L 199.122098 231.932764 
L 202.638729 231.706344 
L 206.155359 232.326923 
L 209.671989 233.78072 
L 213.188619 236.037508 
L 216.70525 239.051434 
L 220.22188 242.762287 
L 223.73851 247.097177 
L 227.255141 251.972519 
L 230.771771 257.296256 
L 234.288401 262.970208 
L 241.321662 274.959733 
L 248.354922 287.122059 
L 251.871552 293.022207 
L 255.388183 298.680684 
L 258.904813 304.015273 
L 262.421443 308.951607 
L 265.938073 313.42367 
L 269.454704 317.37405 
L 272.971334 320.753978 
L 276.487964 323.523213 
L 280.004594 325.649827 
L 283.521225 327.109952 
L 287.037855 327.887531 
L 290.554485 327.974123 
L 294.071115 327.368794 
L 297.587746 326.078101 
L 301.104376 324.11618 
L 304.621006 321.504927 
L 308.137636 318.274228 
L 311.654267 314.462225 
L 315.170897 310.115539 
L 318.687527 305.289417 
L 322.204158 300.047739 
L 325.720788 294.462822 
L 332.754048 282.591812 
L 343.303939 264.431523 
L 346.820569 258.685847 
L 350.3372 253.265165 
L 353.85383 248.268814 
L 357.37046 243.790605 
L 360.88709 239.916455 
L 364.403721 236.722126 
L 367.920351 234.271169 
L 371.436981 232.613162 
L 374.953611 231.782335 
L 378.470242 231.79663 
L 381.986872 232.657251 
L 385.503502 234.348735 
L 389.020132 236.839529 
L 392.536763 240.083067 
L 396.053393 244.019293 
L 399.570023 248.576565 
L 403.086653 253.673866 
L 406.603284 259.223229 
L 410.119914 265.132271 
L 417.153175 277.653012 
L 427.703065 296.841862 
L 434.736326 308.994028 
L 438.252956 314.69372 
L 441.769586 320.083482 
L 445.286217 325.131718 
L 448.802847 329.816604 
L 452.319477 334.125496 
L 455.836107 338.054118 
L 459.352738 341.60561 
L 462.869368 344.789468 
L 466.385998 347.620443 
L 469.902628 350.117433 
L 473.419259 352.30242 
L 476.935889 354.199469 
L 480.452519 355.833831 
L 483.969149 357.231148 
L 487.48578 358.41679 
L 491.00241 359.415301 
L 494.51904 360.249987 
L 498.03567 360.942595 
L 505.068931 361.979659 
L 512.102191 362.66373 
L 519.135452 363.102215 
L 529.685343 363.468788 
L 543.751864 363.670316 
L 565.362437 363.74803 
L 565.362437 363.74803 
" clip-path="url(#pc7435f2ac1)" style="fill: none; stroke: #1f77b4; stroke-width: 1.5; stroke-linecap: square"/>
   </g>
   <g id="line2d_21">
    <path d="M 26.807216 293.814586 
L 565.362437 293.814586 
" clip-path="url(#pc7435f2ac1)" style="fill: none; stroke-dasharray: 5.55,2.4; stroke-dashoffset: 0; stroke: #808080; stroke-width: 1.5"/>
   </g>
   <g id="patch_10">
    <path d="M 70.545305 370.362849 
L 70.545305 225.103654 
" style="fill: none; stroke: #000000; stroke-width: 0.2; stroke-linejoin: miter; stroke-linecap: square"/>
   </g>
   <g id="patch_11">
    <path d="M 507.926193 370.362849 
L 507.926193 225.103654 
" style="fill: none; stroke: #000000; stroke-width: 0.2; stroke-linejoin: miter; stroke-linecap: square"/>
   </g>
   <g id="patch_12">
    <path d="M 70.545305 370.362849 
L 507.926193 370.362849 
" style="fill: none; stroke: #000000; stroke-width: 0.2; stroke-linejoin: miter; stroke-linecap: square"/>
   </g>
   <g id="patch_13">
    <path d="M 70.545305 225.103654 
L 507.926193 225.103654 
" style="fill: none; stroke: #000000; stroke-width: 0.2; stroke-linejoin: miter; stroke-linecap: square"/>
   </g>
   <g id="legend_2">
    <g id="patch_14">
     <path d="M 432.166818 270.603966 
L 500.926193 270.603966 
Q 502.926193 270.603966 502.926193 268.603966 
L 502.926193 232.103654 
Q 502.926193 230.103654 500.926193 230.103654 
L 432.166818 230.103654 
Q 430.166818 230.103654 430.166818 232.103654 
L 430.166818 268.603966 
Q 430.166818 270.603966 432.166818 270.603966 
z
" style="fill: #ffffff; opacity: 0.8; stroke: #cccccc; stroke-linejoin: miter"/>
    </g>
    <g id="patch_15">
     <path d="M 434.166818 254.153029 
L 454.166818 254.153029 
L 454.166818 247.153029 
L 434.166818 247.153029 
z
" style="fill: #ff7f0e; fill-opacity: 0.5; stroke: #ff7f0e; stroke-opacity: 0.5; stroke-linejoin: miter"/>
    </g>
    <g id="text_23">
     <!-- High -->
     <g transform="translate(462.166818 241.702091)scale(0.1 -0.1)">
      <defs>
       <path id="DejaVuSerif-48" d="M 353 0 
L 353 331 
L 947 331 
L 947 4331 
L 353 4331 
L 353 4666 
L 2175 4666 
L 2175 4331 
L 1581 4331 
L 1581 2719 
L 4000 2719 
L 4000 4331 
L 3406 4331 
L 3406 4666 
L 5228 4666 
L 5228 4331 
L 4634 4331 
L 4634 331 
L 5228 331 
L 5228 0 
L 3406 0 
L 3406 331 
L 4000 331 
L 4000 2338 
L 1581 2338 
L 1581 331 
L 2175 331 
L 2175 0 
L 353 0 
z
" transform="scale(0.015625)"/>
       <path id="DejaVuSerif-67" d="M 3359 2988 
L 3359 72 
Q 3359 -644 2965 -1033 
Q 2572 -1422 1844 -1422 
Q 1516 -1422 1216 -1362 
Q 916 -1303 641 -1184 
L 641 -488 
L 941 -488 
Q 997 -813 1206 -963 
Q 1416 -1113 1806 -1113 
Q 2313 -1113 2548 -827 
Q 2784 -541 2784 72 
L 2784 519 
Q 2616 206 2355 57 
Q 2094 -91 1709 -91 
Q 1097 -91 708 395 
Q 319 881 319 1663 
Q 319 2444 706 2928 
Q 1094 3413 1709 3413 
Q 2094 3413 2355 3264 
Q 2616 3116 2784 2803 
L 2784 3322 
L 3909 3322 
L 3909 2988 
L 3359 2988 
z
M 2784 1825 
Q 2784 2422 2554 2737 
Q 2325 3053 1888 3053 
Q 1444 3053 1217 2703 
Q 991 2353 991 1663 
Q 991 975 1217 622 
Q 1444 269 1888 269 
Q 2325 269 2554 583 
Q 2784 897 2784 1497 
L 2784 1825 
z
" transform="scale(0.015625)"/>
       <path id="DejaVuSerif-68" d="M 263 0 
L 263 331 
L 781 331 
L 781 4531 
L 231 4531 
L 231 4863 
L 1356 4863 
L 1356 2731 
Q 1516 3069 1770 3241 
Q 2025 3413 2363 3413 
Q 2913 3413 3172 3097 
Q 3431 2781 3431 2113 
L 3431 331 
L 3944 331 
L 3944 0 
L 2356 0 
L 2356 331 
L 2853 331 
L 2853 1931 
Q 2853 2541 2704 2764 
Q 2556 2988 2175 2988 
Q 1775 2988 1565 2697 
Q 1356 2406 1356 1850 
L 1356 331 
L 1856 331 
L 1856 0 
L 263 0 
z
" transform="scale(0.015625)"/>
      </defs>
      <use xlink:href="#DejaVuSerif-48"/>
      <use xlink:href="#DejaVuSerif-69" x="87.207031"/>
      <use xlink:href="#DejaVuSerif-67" x="119.189453"/>
      <use xlink:href="#DejaVuSerif-68" x="183.203125"/>
     </g>
     <!-- density -->
     <g transform="translate(462.166818 253.042091)scale(0.1 -0.1)">
      <defs>
       <path id="DejaVuSerif-73" d="M 359 184 
L 359 959 
L 691 959 
Q 703 588 923 403 
Q 1144 219 1575 219 
Q 1963 219 2166 364 
Q 2369 509 2369 788 
Q 2369 1006 2220 1140 
Q 2072 1275 1594 1428 
L 1178 1569 
Q 750 1706 558 1912 
Q 366 2119 366 2438 
Q 366 2894 700 3153 
Q 1034 3413 1625 3413 
Q 1888 3413 2178 3344 
Q 2469 3275 2778 3144 
L 2778 2419 
L 2447 2419 
Q 2434 2741 2221 2922 
Q 2009 3103 1644 3103 
Q 1281 3103 1095 2975 
Q 909 2847 909 2591 
Q 909 2381 1050 2254 
Q 1191 2128 1613 1997 
L 2069 1856 
Q 2541 1709 2748 1489 
Q 2956 1269 2956 922 
Q 2956 450 2595 179 
Q 2234 -91 1600 -91 
Q 1278 -91 972 -22 
Q 666 47 359 184 
z
" transform="scale(0.015625)"/>
       <path id="DejaVuSerif-79" d="M 1381 -609 
L 1600 -56 
L 359 2988 
L -19 2988 
L -19 3322 
L 1509 3322 
L 1509 2988 
L 978 2988 
L 1913 703 
L 2847 2988 
L 2350 2988 
L 2350 3322 
L 3597 3322 
L 3597 2988 
L 3225 2988 
L 1703 -750 
Q 1547 -1138 1356 -1280 
Q 1166 -1422 819 -1422 
Q 672 -1422 517 -1397 
Q 363 -1372 206 -1325 
L 206 -691 
L 500 -691 
Q 519 -903 608 -995 
Q 697 -1088 884 -1088 
Q 1056 -1088 1161 -992 
Q 1266 -897 1381 -609 
z
" transform="scale(0.015625)"/>
      </defs>
      <use xlink:href="#DejaVuSerif-64"/>
      <use xlink:href="#DejaVuSerif-65" x="64.013672"/>
      <use xlink:href="#DejaVuSerif-6e" x="123.193359"/>
      <use xlink:href="#DejaVuSerif-73" x="187.597656"/>
      <use xlink:href="#DejaVuSerif-69" x="238.916016"/>
      <use xlink:href="#DejaVuSerif-74" x="270.898438"/>
      <use xlink:href="#DejaVuSerif-79" x="311.083984"/>
     </g>
     <!-- region -->
     <g transform="translate(462.166818 264.382091)scale(0.1 -0.1)">
      <defs>
       <path id="DejaVuSerif-6f" d="M 1925 219 
Q 2388 219 2623 584 
Q 2859 950 2859 1663 
Q 2859 2375 2623 2739 
Q 2388 3103 1925 3103 
Q 1463 3103 1227 2739 
Q 991 2375 991 1663 
Q 991 950 1228 584 
Q 1466 219 1925 219 
z
M 1925 -91 
Q 1200 -91 759 389 
Q 319 869 319 1663 
Q 319 2456 758 2934 
Q 1197 3413 1925 3413 
Q 2653 3413 3092 2934 
Q 3531 2456 3531 1663 
Q 3531 869 3092 389 
Q 2653 -91 1925 -91 
z
" transform="scale(0.015625)"/>
      </defs>
      <use xlink:href="#DejaVuSerif-72"/>
      <use xlink:href="#DejaVuSerif-65" x="47.802734"/>
      <use xlink:href="#DejaVuSerif-67" x="106.982422"/>
      <use xlink:href="#DejaVuSerif-69" x="170.996094"/>
      <use xlink:href="#DejaVuSerif-6f" x="202.978516"/>
      <use xlink:href="#DejaVuSerif-6e" x="263.183594"/>
     </g>
    </g>
   </g>
  </g>
 </g>
 <defs>
  <clipPath id="p6950a733bd">
   <rect x="70.545305" y="50.792619" width="437.380888" height="145.259195"/>
  </clipPath>
  <clipPath id="pc7435f2ac1">
   <rect x="70.545305" y="225.103654" width="437.380888" height="145.259195"/>
  </clipPath>
 </defs>
</svg>
