<?xml version="1.0" encoding="utf-8" standalone="no"?>
<!DOCTYPE svg PUBLIC "-//W3C//DTD SVG 1.1//EN"
  "http://www.w3.org/Graphics/SVG/1.1/DTD/svg11.dtd">
<svg height="423.271828pt" version="1.1" viewBox="0 0 564.362437 423.271828" width="564.362437pt" xmlns="http://www.w3.org/2000/svg" xmlns:xlink="http://www.w3.org/1999/xlink">
 <metadata>
  <rdf:RDF xmlns:cc="http://creativecommons.org/ns#" xmlns:dc="http://purl.org/dc/elements/1.1/" xmlns:rdf="http://www.w3.org/1999/02/22-rdf-syntax-ns#">
   <cc:Work>
    <dc:type rdf:resource="http://purl.org/dc/dcmitype/StillImage"/>
    <dc:date>2022-04-22T12:14:41.273216</dc:date>
    <dc:format>image/svg+xml</dc:format>
    <dc:creator>
     <cc:Agent>
      <dc:title>Matplotlib v3.4.3, https://matplotlib.org/</dc:title>
     </cc:Agent>
    </dc:creator>
   </cc:Work>
  </rdf:RDF>
 </metadata>
 <defs>
  <style type="text/css">*{stroke-linecap:butt;stroke-linejoin:round;}</style>
 </defs>
 <g id="figure_1">
  <g id="patch_1">
   <path d="M 0 423.271828 
L 564.362437 423.271828 
L 564.362437 0 
L 0 0 
z
" style="fill:none;"/>
  </g>
  <g id="axes_1">
   <g id="patch_2">
    <path d="M 70.545305 196.051815 
L 507.926193 196.051815 
L 507.926193 50.792619 
L 70.545305 50.792619 
z
" style="fill:#ffffff;"/>
   </g>
   <g id="PolyCollection_1">
    <defs>
     <path d="M 173.139681 -341.610076 
L 173.139681 -233.822704 
L 176.732469 -233.822704 
L 180.325256 -233.822704 
L 183.918044 -233.822704 
L 187.510832 -233.822704 
L 191.10362 -233.822704 
L 194.696408 -233.822704 
L 198.289196 -233.822704 
L 201.881984 -233.822704 
L 205.474771 -233.822704 
L 209.067559 -233.822704 
L 212.660347 -233.822704 
L 216.253135 -233.822704 
L 219.845923 -233.822704 
L 223.438711 -233.822704 
L 227.031499 -233.822704 
L 230.624287 -233.822704 
L 234.217074 -233.822704 
L 237.809862 -233.822704 
L 241.40265 -233.822704 
L 244.995438 -233.822704 
L 248.588226 -233.822704 
L 252.181014 -233.822704 
L 255.773802 -233.822704 
L 259.366589 -233.822704 
L 262.959377 -233.822704 
L 266.552165 -233.822704 
L 270.144953 -233.822704 
L 273.737741 -233.822704 
L 277.330529 -233.822704 
L 280.923317 -233.822704 
L 284.516105 -233.822704 
L 288.108892 -233.822704 
L 291.70168 -233.822704 
L 295.294468 -233.822704 
L 298.887256 -233.822704 
L 302.480044 -233.822704 
L 306.072832 -233.822704 
L 309.66562 -233.822704 
L 313.258407 -233.822704 
L 316.851195 -233.822704 
L 320.443983 -233.822704 
L 324.036771 -233.822704 
L 327.629559 -233.822704 
L 331.222347 -233.822704 
L 334.815135 -233.822704 
L 338.407923 -233.822704 
L 342.00071 -233.822704 
L 345.593498 -233.822704 
L 349.186286 -233.822704 
L 352.779074 -233.822704 
L 356.371862 -233.822704 
L 359.96465 -233.822704 
L 363.557438 -233.822704 
L 367.150225 -233.822704 
L 370.743013 -233.822704 
L 374.335801 -233.822704 
L 377.928589 -233.822704 
L 381.521377 -233.822704 
L 385.114165 -233.822704 
L 388.706953 -233.822704 
L 392.299741 -233.822704 
L 395.892528 -233.822704 
L 399.485316 -233.822704 
L 403.078104 -233.822704 
L 406.670892 -233.822704 
L 406.670892 -339.550329 
L 406.670892 -339.550329 
L 403.078104 -344.951512 
L 399.485316 -349.903234 
L 395.892528 -354.316273 
L 392.299741 -358.108676 
L 388.706953 -361.208324 
L 385.114165 -363.555257 
L 381.521377 -365.103665 
L 377.928589 -365.823453 
L 374.335801 -365.701325 
L 370.743013 -364.741314 
L 367.150225 -362.964767 
L 363.557438 -360.409771 
L 359.96465 -357.130055 
L 356.371862 -353.193433 
L 352.779074 -348.679849 
L 349.186286 -343.679132 
L 345.593498 -338.288554 
L 342.00071 -332.610306 
L 338.407923 -326.748981 
L 334.815135 -320.809187 
L 331.222347 -314.893348 
L 327.629559 -309.09978 
L 324.036771 -303.52107 
L 320.443983 -298.2428 
L 316.851195 -293.342608 
L 313.258407 -288.889577 
L 309.66562 -284.943902 
L 306.072832 -281.556809 
L 302.480044 -278.770647 
L 298.887256 -276.619101 
L 295.294468 -275.127458 
L 291.70168 -274.312874 
L 288.108892 -274.184586 
L 284.516105 -274.744041 
L 280.923317 -275.984914 
L 277.330529 -277.893022 
L 273.737741 -280.446137 
L 270.144953 -283.613737 
L 266.552165 -287.356732 
L 262.959377 -291.627223 
L 259.366589 -296.368357 
L 255.773802 -301.514341 
L 252.181014 -306.99067 
L 248.588226 -312.714631 
L 244.995438 -318.596116 
L 241.40265 -324.538774 
L 237.809862 -330.441502 
L 234.217074 -336.200264 
L 230.624287 -341.710188 
L 227.031499 -346.8679 
L 223.438711 -351.573998 
L 219.845923 -355.735586 
L 216.253135 -359.268761 
L 212.660347 -362.100941 
L 209.067559 -364.172944 
L 205.474771 -365.440696 
L 201.881984 -365.876518 
L 198.289196 -365.469888 
L 194.696408 -364.227679 
L 191.10362 -362.173822 
L 187.510832 -359.348428 
L 183.918044 -355.806396 
L 180.325256 -351.615567 
L 176.732469 -346.85452 
L 173.139681 -341.610076 
z
" id="m7bbf20ae9c" style="stroke:#ff7f0e;stroke-opacity:0.5;"/>
    </defs>
    <g clip-path="url(#p56c3d585f6)">
     <use style="fill:#ff7f0e;fill-opacity:0.5;stroke:#ff7f0e;stroke-opacity:0.5;" x="0" xlink:href="#m7bbf20ae9c" y="423.271828"/>
    </g>
   </g>
   <g id="matplotlib.axis_1">
    <g id="xtick_1">
     <g id="line2d_1">
      <defs>
       <path d="M 0 0 
L 0 3 
" id="md8c717954e" style="stroke:#000000;stroke-width:0.2;"/>
      </defs>
      <g>
       <use style="stroke:#000000;stroke-width:0.2;" x="114.283393" xlink:href="#md8c717954e" y="196.051815"/>
      </g>
     </g>
     <g id="text_1">
      <!-- −2 -->
      <g transform="translate(106.9123 210.150252)scale(0.1 -0.1)">
       <defs>
        <path d="M 678 2259 
L 4684 2259 
L 4684 1753 
L 678 1753 
L 678 2259 
z
" id="DejaVuSerif-2212" transform="scale(0.015625)"/>
        <path d="M 819 3553 
L 469 3553 
L 469 4384 
Q 803 4563 1142 4656 
Q 1481 4750 1806 4750 
Q 2534 4750 2956 4397 
Q 3378 4044 3378 3438 
Q 3378 2753 2422 1800 
Q 2347 1728 2309 1691 
L 1131 513 
L 3078 513 
L 3078 1088 
L 3444 1088 
L 3444 0 
L 434 0 
L 434 341 
L 1850 1753 
Q 2319 2222 2519 2614 
Q 2719 3006 2719 3438 
Q 2719 3909 2473 4175 
Q 2228 4441 1797 4441 
Q 1350 4441 1106 4219 
Q 863 3997 819 3553 
z
" id="DejaVuSerif-32" transform="scale(0.015625)"/>
       </defs>
       <use xlink:href="#DejaVuSerif-2212"/>
       <use x="83.789062" xlink:href="#DejaVuSerif-32"/>
      </g>
     </g>
    </g>
    <g id="xtick_2">
     <g id="line2d_2">
      <g>
       <use style="stroke:#000000;stroke-width:0.2;" x="201.759571" xlink:href="#md8c717954e" y="196.051815"/>
      </g>
     </g>
     <g id="text_2">
      <!-- 0 -->
      <g transform="translate(198.578321 210.150252)scale(0.1 -0.1)">
       <defs>
        <path d="M 2034 219 
Q 2513 219 2750 744 
Q 2988 1269 2988 2328 
Q 2988 3391 2750 3916 
Q 2513 4441 2034 4441 
Q 1556 4441 1318 3916 
Q 1081 3391 1081 2328 
Q 1081 1269 1318 744 
Q 1556 219 2034 219 
z
M 2034 -91 
Q 1275 -91 848 546 
Q 422 1184 422 2328 
Q 422 3475 848 4112 
Q 1275 4750 2034 4750 
Q 2797 4750 3222 4112 
Q 3647 3475 3647 2328 
Q 3647 1184 3222 546 
Q 2797 -91 2034 -91 
z
" id="DejaVuSerif-30" transform="scale(0.015625)"/>
       </defs>
       <use xlink:href="#DejaVuSerif-30"/>
      </g>
     </g>
    </g>
    <g id="xtick_3">
     <g id="line2d_3">
      <g>
       <use style="stroke:#000000;stroke-width:0.2;" x="289.235749" xlink:href="#md8c717954e" y="196.051815"/>
      </g>
     </g>
     <g id="text_3">
      <!-- 2 -->
      <g transform="translate(286.054499 210.150252)scale(0.1 -0.1)">
       <use xlink:href="#DejaVuSerif-32"/>
      </g>
     </g>
    </g>
    <g id="xtick_4">
     <g id="line2d_4">
      <g>
       <use style="stroke:#000000;stroke-width:0.2;" x="376.711927" xlink:href="#md8c717954e" y="196.051815"/>
      </g>
     </g>
     <g id="text_4">
      <!-- 4 -->
      <g transform="translate(373.530677 210.150252)scale(0.1 -0.1)">
       <defs>
        <path d="M 2234 1581 
L 2234 4063 
L 641 1581 
L 2234 1581 
z
M 3609 0 
L 1484 0 
L 1484 331 
L 2234 331 
L 2234 1247 
L 197 1247 
L 197 1588 
L 2241 4750 
L 2859 4750 
L 2859 1581 
L 3750 1581 
L 3750 1247 
L 2859 1247 
L 2859 331 
L 3609 331 
L 3609 0 
z
" id="DejaVuSerif-34" transform="scale(0.015625)"/>
       </defs>
       <use xlink:href="#DejaVuSerif-34"/>
      </g>
     </g>
    </g>
    <g id="xtick_5">
     <g id="line2d_5">
      <g>
       <use style="stroke:#000000;stroke-width:0.2;" x="464.188104" xlink:href="#md8c717954e" y="196.051815"/>
      </g>
     </g>
     <g id="text_5">
      <!-- 6 -->
      <g transform="translate(461.006854 210.150252)scale(0.1 -0.1)">
       <defs>
        <path d="M 2094 219 
Q 2534 219 2771 542 
Q 3009 866 3009 1472 
Q 3009 2078 2771 2401 
Q 2534 2725 2094 2725 
Q 1647 2725 1412 2412 
Q 1178 2100 1178 1509 
Q 1178 888 1415 553 
Q 1653 219 2094 219 
z
M 1075 2569 
Q 1288 2803 1556 2918 
Q 1825 3034 2163 3034 
Q 2859 3034 3264 2615 
Q 3669 2197 3669 1472 
Q 3669 763 3233 336 
Q 2797 -91 2069 -91 
Q 1278 -91 853 498 
Q 428 1088 428 2181 
Q 428 3406 931 4078 
Q 1434 4750 2350 4750 
Q 2597 4750 2869 4703 
Q 3141 4656 3425 4563 
L 3425 3794 
L 3072 3794 
Q 3034 4109 2831 4275 
Q 2628 4441 2284 4441 
Q 1678 4441 1381 3981 
Q 1084 3522 1075 2569 
z
" id="DejaVuSerif-36" transform="scale(0.015625)"/>
       </defs>
       <use xlink:href="#DejaVuSerif-36"/>
      </g>
     </g>
    </g>
   </g>
   <g id="matplotlib.axis_2">
    <g id="ytick_1">
     <g id="line2d_6">
      <defs>
       <path d="M 0 0 
L -3 0 
" id="mba64773a70" style="stroke:#000000;stroke-width:0.2;"/>
      </defs>
      <g>
       <use style="stroke:#000000;stroke-width:0.2;" x="70.545305" xlink:href="#mba64773a70" y="183.146983"/>
      </g>
     </g>
     <g id="text_6">
      <!-- 0.00 -->
      <g transform="translate(41.77968 186.946202)scale(0.1 -0.1)">
       <defs>
        <path d="M 603 325 
Q 603 500 722 622 
Q 841 744 1019 744 
Q 1191 744 1312 622 
Q 1434 500 1434 325 
Q 1434 153 1312 31 
Q 1191 -91 1019 -91 
Q 841 -91 722 29 
Q 603 150 603 325 
z
" id="DejaVuSerif-2e" transform="scale(0.015625)"/>
       </defs>
       <use xlink:href="#DejaVuSerif-30"/>
       <use x="63.623047" xlink:href="#DejaVuSerif-2e"/>
       <use x="95.410156" xlink:href="#DejaVuSerif-30"/>
       <use x="159.033203" xlink:href="#DejaVuSerif-30"/>
      </g>
     </g>
    </g>
    <g id="ytick_2">
     <g id="line2d_7">
      <g>
       <use style="stroke:#000000;stroke-width:0.2;" x="70.545305" xlink:href="#mba64773a70" y="151.636279"/>
      </g>
     </g>
     <g id="text_7">
      <!-- 0.05 -->
      <g transform="translate(41.77968 155.435498)scale(0.1 -0.1)">
       <defs>
        <path d="M 3219 4666 
L 3219 4153 
L 1081 4153 
L 1081 2816 
Q 1244 2928 1461 2984 
Q 1678 3041 1947 3041 
Q 2703 3041 3140 2622 
Q 3578 2203 3578 1478 
Q 3578 738 3136 323 
Q 2694 -91 1894 -91 
Q 1572 -91 1234 -12 
Q 897 66 544 225 
L 544 1131 
L 897 1131 
Q 925 688 1179 453 
Q 1434 219 1894 219 
Q 2388 219 2653 544 
Q 2919 869 2919 1478 
Q 2919 2084 2655 2407 
Q 2391 2731 1894 2731 
Q 1613 2731 1398 2631 
Q 1184 2531 1019 2322 
L 750 2322 
L 750 4666 
L 3219 4666 
z
" id="DejaVuSerif-35" transform="scale(0.015625)"/>
       </defs>
       <use xlink:href="#DejaVuSerif-30"/>
       <use x="63.623047" xlink:href="#DejaVuSerif-2e"/>
       <use x="95.410156" xlink:href="#DejaVuSerif-30"/>
       <use x="159.033203" xlink:href="#DejaVuSerif-35"/>
      </g>
     </g>
    </g>
    <g id="ytick_3">
     <g id="line2d_8">
      <g>
       <use style="stroke:#000000;stroke-width:0.2;" x="70.545305" xlink:href="#mba64773a70" y="120.125576"/>
      </g>
     </g>
     <g id="text_8">
      <!-- 0.10 -->
      <g transform="translate(41.77968 123.924794)scale(0.1 -0.1)">
       <defs>
        <path d="M 909 0 
L 909 331 
L 1722 331 
L 1722 4213 
L 781 3603 
L 781 4013 
L 1919 4750 
L 2350 4750 
L 2350 331 
L 3163 331 
L 3163 0 
L 909 0 
z
" id="DejaVuSerif-31" transform="scale(0.015625)"/>
       </defs>
       <use xlink:href="#DejaVuSerif-30"/>
       <use x="63.623047" xlink:href="#DejaVuSerif-2e"/>
       <use x="95.410156" xlink:href="#DejaVuSerif-31"/>
       <use x="159.033203" xlink:href="#DejaVuSerif-30"/>
      </g>
     </g>
    </g>
    <g id="ytick_4">
     <g id="line2d_9">
      <g>
       <use style="stroke:#000000;stroke-width:0.2;" x="70.545305" xlink:href="#mba64773a70" y="88.614872"/>
      </g>
     </g>
     <g id="text_9">
      <!-- 0.15 -->
      <g transform="translate(41.77968 92.414091)scale(0.1 -0.1)">
       <use xlink:href="#DejaVuSerif-30"/>
       <use x="63.623047" xlink:href="#DejaVuSerif-2e"/>
       <use x="95.410156" xlink:href="#DejaVuSerif-31"/>
       <use x="159.033203" xlink:href="#DejaVuSerif-35"/>
      </g>
     </g>
    </g>
    <g id="ytick_5">
     <g id="line2d_10">
      <g>
       <use style="stroke:#000000;stroke-width:0.2;" x="70.545305" xlink:href="#mba64773a70" y="57.104168"/>
      </g>
     </g>
     <g id="text_10">
      <!-- 0.20 -->
      <g transform="translate(41.77968 60.903387)scale(0.1 -0.1)">
       <use xlink:href="#DejaVuSerif-30"/>
       <use x="63.623047" xlink:href="#DejaVuSerif-2e"/>
       <use x="95.410156" xlink:href="#DejaVuSerif-32"/>
       <use x="159.033203" xlink:href="#DejaVuSerif-30"/>
      </g>
     </g>
    </g>
    <g id="text_11">
     <!-- $f(\theta)$ -->
     <g transform="translate(35.67968 132.222217)rotate(-90)scale(0.1 -0.1)">
      <defs>
       <path d="M 3191 4078 
L 2888 4078 
Q 2900 4144 2900 4203 
Q 2900 4347 2825 4434 
Q 2719 4556 2472 4556 
Q 2150 4556 1984 4379 
Q 1819 4203 1731 3750 
L 1647 3322 
L 2575 3322 
L 2509 2988 
L 1581 2988 
L 963 -206 
Q 853 -763 509 -1047 
Q 166 -1331 -394 -1331 
L -356 -1025 
Q -28 -1025 131 -850 
Q 297 -663 388 -206 
L 1006 2988 
L 456 2988 
L 522 3322 
L 1072 3322 
L 1153 3738 
Q 1263 4297 1606 4578 
Q 1950 4863 2509 4863 
Q 2719 4863 2920 4825 
Q 3122 4788 3316 4709 
L 3191 4078 
z
" id="DejaVuSerif-Italic-66" transform="scale(0.015625)"/>
       <path d="M 2041 -997 
Q 1281 -656 893 83 
Q 506 822 506 1931 
Q 506 3044 893 3783 
Q 1281 4522 2041 4863 
L 2041 4556 
Q 1559 4225 1350 3623 
Q 1141 3022 1141 1931 
Q 1141 844 1350 242 
Q 1559 -359 2041 -691 
L 2041 -997 
z
" id="DejaVuSerif-28" transform="scale(0.015625)"/>
       <path d="M 2888 2600 
Q 3059 3603 2947 4113 
Q 2822 4678 2359 4678 
Q 1900 4678 1553 4113 
Q 1244 3603 1025 2600 
L 2888 2600 
z
M 2822 2266 
L 959 2266 
Q 791 1269 903 759 
Q 1031 191 1488 191 
Q 1947 191 2294 759 
Q 2603 1269 2822 2266 
z
M 2409 4931 
Q 3138 4931 3444 4248 
Q 3750 3566 3529 2433 
Q 3309 1300 2734 615 
Q 2159 -69 1434 -69 
Q 713 -69 406 615 
Q 100 1300 320 2433 
Q 541 3566 1112 4248 
Q 1684 4931 2409 4931 
z
" id="DejaVuSerif-Italic-3b8" transform="scale(0.015625)"/>
       <path d="M 453 -997 
L 453 -691 
Q 934 -359 1145 242 
Q 1356 844 1356 1931 
Q 1356 3022 1145 3623 
Q 934 4225 453 4556 
L 453 4863 
Q 1216 4522 1603 3783 
Q 1991 3044 1991 1931 
Q 1991 822 1603 83 
Q 1216 -656 453 -997 
z
" id="DejaVuSerif-29" transform="scale(0.015625)"/>
      </defs>
      <use transform="translate(0 0.953125)" xlink:href="#DejaVuSerif-Italic-66"/>
      <use transform="translate(37.011719 0.953125)" xlink:href="#DejaVuSerif-28"/>
      <use transform="translate(76.025391 0.953125)" xlink:href="#DejaVuSerif-Italic-3b8"/>
      <use transform="translate(136.230469 0.953125)" xlink:href="#DejaVuSerif-29"/>
     </g>
    </g>
   </g>
   <g id="line2d_11">
    <path clip-path="url(#p56c3d585f6)" d="M 26.807216 183.104812 
L 44.390367 182.952769 
L 54.940258 182.697666 
L 61.973518 182.38602 
L 69.006779 181.891114 
L 76.040039 181.127247 
L 83.0733 179.981681 
L 86.58993 179.222665 
L 90.10656 178.312993 
L 93.623191 177.230824 
L 97.139821 175.95305 
L 100.656451 174.455669 
L 104.173081 172.714276 
L 107.689712 170.70467 
L 111.206342 168.40358 
L 114.722972 165.789496 
L 118.239602 162.843596 
L 121.756233 159.550752 
L 125.272863 155.900571 
L 128.789493 151.888455 
L 132.306124 147.516619 
L 135.822754 142.795033 
L 139.339384 137.742228 
L 142.856014 132.38592 
L 146.372645 126.7634 
L 153.405905 114.91713 
L 167.472426 90.691852 
L 170.989056 84.994182 
L 174.505687 79.616605 
L 178.022317 74.64775 
L 181.538947 70.172651 
L 185.055577 66.270321 
L 188.572208 63.01141 
L 192.088838 60.456039 
L 195.605468 58.651906 
L 199.122098 57.63274 
L 202.638729 57.417163 
L 206.155359 58.008023 
L 209.671989 59.392198 
L 213.188619 61.54091 
L 216.70525 64.4105 
L 220.22188 67.943642 
L 223.73851 72.070937 
L 227.255141 76.712801 
L 230.771771 81.781586 
L 234.288401 87.183816 
L 241.321662 98.599168 
L 248.354922 110.179046 
L 251.871552 115.796639 
L 255.388183 121.184133 
L 258.904813 126.263252 
L 262.421443 130.963187 
L 265.938073 135.221085 
L 269.454704 138.982283 
L 272.971334 142.200348 
L 276.487964 144.836966 
L 280.004594 146.861738 
L 283.521225 148.251938 
L 287.037855 148.992279 
L 290.554485 149.074724 
L 294.071115 148.498384 
L 297.587746 147.269501 
L 301.104376 145.401536 
L 304.621006 142.915334 
L 308.137636 139.839352 
L 311.654267 136.209904 
L 315.170897 132.071379 
L 318.687527 127.476378 
L 322.204158 122.485722 
L 325.720788 117.168264 
L 332.754048 105.86575 
L 343.303939 88.575149 
L 346.820569 83.10463 
L 350.3372 77.943543 
L 353.85383 73.186464 
L 357.37046 68.922714 
L 360.88709 65.234096 
L 364.403721 62.192742 
L 367.920351 59.85916 
L 371.436981 58.280554 
L 374.953611 57.489515 
L 378.470242 57.503125 
L 381.986872 58.322532 
L 385.503502 59.933011 
L 389.020132 62.304522 
L 392.536763 65.392729 
L 396.053393 69.140451 
L 399.570023 73.479477 
L 403.086653 78.332671 
L 406.603284 83.616278 
L 410.119914 89.242339 
L 417.153175 101.163467 
L 427.703065 119.433372 
L 434.736326 131.003577 
L 438.252956 136.430313 
L 441.769586 141.561962 
L 445.286217 146.36844 
L 448.802847 150.82897 
L 452.319477 154.931511 
L 455.836107 158.671993 
L 459.352738 162.053406 
L 462.869368 165.084791 
L 466.385998 167.780191 
L 469.902628 170.157601 
L 473.419259 172.23795 
L 476.935889 174.044151 
L 480.452519 175.600244 
L 483.969149 176.930644 
L 487.48578 178.059506 
L 491.00241 179.010199 
L 494.51904 179.804912 
L 498.03567 180.464352 
L 505.068931 181.451751 
L 512.102191 182.103062 
L 519.135452 182.520548 
L 529.685343 182.869567 
L 543.751864 183.061443 
L 565.362437 183.135435 
L 565.362437 183.135435 
" style="fill:none;stroke:#1f77b4;stroke-linecap:square;stroke-width:1.5;"/>
   </g>
   <g id="patch_3">
    <path d="M 70.545305 196.051815 
L 70.545305 50.792619 
" style="fill:none;stroke:#000000;stroke-linecap:square;stroke-linejoin:miter;stroke-width:0.2;"/>
   </g>
   <g id="patch_4">
    <path d="M 507.926193 196.051815 
L 507.926193 50.792619 
" style="fill:none;stroke:#000000;stroke-linecap:square;stroke-linejoin:miter;stroke-width:0.2;"/>
   </g>
   <g id="patch_5">
    <path d="M 70.545305 196.051815 
L 507.926193 196.051815 
" style="fill:none;stroke:#000000;stroke-linecap:square;stroke-linejoin:miter;stroke-width:0.2;"/>
   </g>
   <g id="patch_6">
    <path d="M 70.545305 50.792619 
L 507.926193 50.792619 
" style="fill:none;stroke:#000000;stroke-linecap:square;stroke-linejoin:miter;stroke-width:0.2;"/>
   </g>
   <g id="legend_1">
    <g id="patch_7">
     <path d="M 425.457443 84.668557 
L 500.926193 84.668557 
Q 502.926193 84.668557 502.926193 82.668557 
L 502.926193 57.792619 
Q 502.926193 55.792619 500.926193 55.792619 
L 425.457443 55.792619 
Q 423.457443 55.792619 423.457443 57.792619 
L 423.457443 82.668557 
Q 423.457443 84.668557 425.457443 84.668557 
z
" style="fill:#ffffff;opacity:0.8;stroke:#cccccc;stroke-linejoin:miter;"/>
    </g>
    <g id="patch_8">
     <path d="M 427.457443 74.029807 
L 447.457443 74.029807 
L 447.457443 67.029807 
L 427.457443 67.029807 
z
" style="fill:#ff7f0e;fill-opacity:0.5;stroke:#ff7f0e;stroke-linejoin:miter;stroke-opacity:0.5;"/>
    </g>
    <g id="text_12">
     <!-- Credible -->
     <g transform="translate(455.457443 67.391057)scale(0.1 -0.1)">
      <defs>
       <path d="M 4513 1234 
Q 4306 581 3820 245 
Q 3334 -91 2591 -91 
Q 2134 -91 1743 65 
Q 1353 222 1050 525 
Q 700 875 529 1320 
Q 359 1766 359 2328 
Q 359 3416 987 4083 
Q 1616 4750 2644 4750 
Q 3025 4750 3456 4650 
Q 3888 4550 4384 4347 
L 4384 3272 
L 4031 3272 
Q 3916 3859 3567 4137 
Q 3219 4416 2591 4416 
Q 1844 4416 1459 3886 
Q 1075 3356 1075 2328 
Q 1075 1303 1459 773 
Q 1844 244 2591 244 
Q 3113 244 3450 492 
Q 3788 741 3938 1234 
L 4513 1234 
z
" id="DejaVuSerif-43" transform="scale(0.015625)"/>
       <path d="M 3059 3328 
L 3059 2497 
L 2728 2497 
Q 2713 2744 2591 2866 
Q 2469 2988 2234 2988 
Q 1809 2988 1582 2694 
Q 1356 2400 1356 1850 
L 1356 331 
L 2022 331 
L 2022 0 
L 263 0 
L 263 331 
L 781 331 
L 781 2994 
L 231 2994 
L 231 3322 
L 1356 3322 
L 1356 2731 
Q 1525 3078 1790 3245 
Q 2056 3413 2438 3413 
Q 2578 3413 2733 3391 
Q 2888 3369 3059 3328 
z
" id="DejaVuSerif-72" transform="scale(0.015625)"/>
       <path d="M 3469 1600 
L 991 1600 
L 991 1575 
Q 991 903 1244 561 
Q 1497 219 1991 219 
Q 2369 219 2611 417 
Q 2853 616 2950 1006 
L 3413 1006 
Q 3275 459 2904 184 
Q 2534 -91 1931 -91 
Q 1203 -91 761 389 
Q 319 869 319 1663 
Q 319 2450 753 2931 
Q 1188 3413 1894 3413 
Q 2647 3413 3050 2948 
Q 3453 2484 3469 1600 
z
M 2791 1931 
Q 2772 2513 2545 2808 
Q 2319 3103 1894 3103 
Q 1497 3103 1269 2806 
Q 1041 2509 991 1931 
L 2791 1931 
z
" id="DejaVuSerif-65" transform="scale(0.015625)"/>
       <path d="M 3359 331 
L 3909 331 
L 3909 0 
L 2784 0 
L 2784 519 
Q 2616 206 2355 57 
Q 2094 -91 1709 -91 
Q 1097 -91 708 395 
Q 319 881 319 1663 
Q 319 2444 706 2928 
Q 1094 3413 1709 3413 
Q 2094 3413 2355 3264 
Q 2616 3116 2784 2803 
L 2784 4531 
L 2241 4531 
L 2241 4863 
L 3359 4863 
L 3359 331 
z
M 2784 1497 
L 2784 1825 
Q 2784 2422 2554 2737 
Q 2325 3053 1888 3053 
Q 1444 3053 1217 2703 
Q 991 2353 991 1663 
Q 991 975 1217 622 
Q 1444 269 1888 269 
Q 2325 269 2554 583 
Q 2784 897 2784 1497 
z
" id="DejaVuSerif-64" transform="scale(0.015625)"/>
       <path d="M 622 4353 
Q 622 4497 726 4603 
Q 831 4709 978 4709 
Q 1122 4709 1226 4603 
Q 1331 4497 1331 4353 
Q 1331 4206 1228 4103 
Q 1125 4000 978 4000 
Q 831 4000 726 4103 
Q 622 4206 622 4353 
z
M 1356 331 
L 1900 331 
L 1900 0 
L 231 0 
L 231 331 
L 781 331 
L 781 2988 
L 231 2988 
L 231 3322 
L 1356 3322 
L 1356 331 
z
" id="DejaVuSerif-69" transform="scale(0.015625)"/>
       <path d="M 738 331 
L 738 4531 
L 184 4531 
L 184 4863 
L 1313 4863 
L 1313 2803 
Q 1481 3116 1742 3264 
Q 2003 3413 2388 3413 
Q 3000 3413 3387 2928 
Q 3775 2444 3775 1663 
Q 3775 881 3387 395 
Q 3000 -91 2388 -91 
Q 2003 -91 1742 57 
Q 1481 206 1313 519 
L 1313 0 
L 184 0 
L 184 331 
L 738 331 
z
M 1313 1497 
Q 1313 897 1542 583 
Q 1772 269 2209 269 
Q 2650 269 2876 622 
Q 3103 975 3103 1663 
Q 3103 2353 2876 2703 
Q 2650 3053 2209 3053 
Q 1772 3053 1542 2737 
Q 1313 2422 1313 1825 
L 1313 1497 
z
" id="DejaVuSerif-62" transform="scale(0.015625)"/>
       <path d="M 1313 331 
L 1856 331 
L 1856 0 
L 184 0 
L 184 331 
L 738 331 
L 738 4531 
L 184 4531 
L 184 4863 
L 1313 4863 
L 1313 331 
z
" id="DejaVuSerif-6c" transform="scale(0.015625)"/>
      </defs>
      <use xlink:href="#DejaVuSerif-43"/>
      <use x="76.513672" xlink:href="#DejaVuSerif-72"/>
      <use x="124.316406" xlink:href="#DejaVuSerif-65"/>
      <use x="183.496094" xlink:href="#DejaVuSerif-64"/>
      <use x="247.509766" xlink:href="#DejaVuSerif-69"/>
      <use x="279.492188" xlink:href="#DejaVuSerif-62"/>
      <use x="343.505859" xlink:href="#DejaVuSerif-6c"/>
      <use x="375.488281" xlink:href="#DejaVuSerif-65"/>
     </g>
     <!-- interval -->
     <g transform="translate(455.457443 78.588869)scale(0.1 -0.1)">
      <defs>
       <path d="M 263 0 
L 263 331 
L 781 331 
L 781 2988 
L 231 2988 
L 231 3322 
L 1356 3322 
L 1356 2731 
Q 1516 3069 1770 3241 
Q 2025 3413 2363 3413 
Q 2913 3413 3172 3097 
Q 3431 2781 3431 2113 
L 3431 331 
L 3944 331 
L 3944 0 
L 2356 0 
L 2356 331 
L 2853 331 
L 2853 1931 
Q 2853 2541 2703 2767 
Q 2553 2994 2175 2994 
Q 1775 2994 1565 2701 
Q 1356 2409 1356 1850 
L 1356 331 
L 1856 331 
L 1856 0 
L 263 0 
z
" id="DejaVuSerif-6e" transform="scale(0.015625)"/>
       <path d="M 691 2988 
L 184 2988 
L 184 3322 
L 691 3322 
L 691 4353 
L 1269 4353 
L 1269 3322 
L 2350 3322 
L 2350 2988 
L 1269 2988 
L 1269 878 
Q 1269 456 1350 337 
Q 1431 219 1650 219 
Q 1875 219 1978 351 
Q 2081 484 2088 781 
L 2522 781 
Q 2497 328 2275 118 
Q 2053 -91 1600 -91 
Q 1103 -91 897 129 
Q 691 350 691 878 
L 691 2988 
z
" id="DejaVuSerif-74" transform="scale(0.015625)"/>
       <path d="M 1581 0 
L 359 2988 
L -19 2988 
L -19 3322 
L 1509 3322 
L 1509 2988 
L 978 2988 
L 1913 703 
L 2847 2988 
L 2350 2988 
L 2350 3322 
L 3597 3322 
L 3597 2988 
L 3225 2988 
L 2003 0 
L 1581 0 
z
" id="DejaVuSerif-76" transform="scale(0.015625)"/>
       <path d="M 2547 1044 
L 2547 1747 
L 1806 1747 
Q 1378 1747 1168 1562 
Q 959 1378 959 997 
Q 959 650 1171 447 
Q 1384 244 1747 244 
Q 2106 244 2326 466 
Q 2547 688 2547 1044 
z
M 3122 2075 
L 3122 331 
L 3634 331 
L 3634 0 
L 2547 0 
L 2547 359 
Q 2356 128 2106 18 
Q 1856 -91 1522 -91 
Q 969 -91 644 203 
Q 319 497 319 997 
Q 319 1513 691 1797 
Q 1063 2081 1741 2081 
L 2547 2081 
L 2547 2309 
Q 2547 2688 2317 2895 
Q 2088 3103 1672 3103 
Q 1328 3103 1125 2947 
Q 922 2791 872 2484 
L 575 2484 
L 575 3156 
Q 875 3284 1158 3348 
Q 1441 3413 1709 3413 
Q 2400 3413 2761 3070 
Q 3122 2728 3122 2075 
z
" id="DejaVuSerif-61" transform="scale(0.015625)"/>
      </defs>
      <use xlink:href="#DejaVuSerif-69"/>
      <use x="31.982422" xlink:href="#DejaVuSerif-6e"/>
      <use x="96.386719" xlink:href="#DejaVuSerif-74"/>
      <use x="136.572266" xlink:href="#DejaVuSerif-65"/>
      <use x="195.751953" xlink:href="#DejaVuSerif-72"/>
      <use x="243.554688" xlink:href="#DejaVuSerif-76"/>
      <use x="300.048828" xlink:href="#DejaVuSerif-61"/>
      <use x="359.667969" xlink:href="#DejaVuSerif-6c"/>
     </g>
    </g>
   </g>
  </g>
  <g id="axes_2">
   <g id="patch_9">
    <path d="M 70.545305 370.362849 
L 507.926193 370.362849 
L 507.926193 225.103654 
L 70.545305 225.103654 
z
" style="fill:#ffffff;"/>
   </g>
   <g id="PolyCollection_2">
    <defs>
     <path d="M 152.387276 -129.332884 
L 152.387276 -59.511669 
L 156.092592 -59.511669 
L 159.797907 -59.511669 
L 163.503222 -59.511669 
L 167.208537 -59.511669 
L 170.913852 -59.511669 
L 174.619167 -59.511669 
L 178.324483 -59.511669 
L 182.029798 -59.511669 
L 185.735113 -59.511669 
L 189.440428 -59.511669 
L 193.145743 -59.511669 
L 196.851058 -59.511669 
L 200.556374 -59.511669 
L 204.261689 -59.511669 
L 207.967004 -59.511669 
L 211.672319 -59.511669 
L 215.377634 -59.511669 
L 219.082949 -59.511669 
L 222.788265 -59.511669 
L 226.49358 -59.511669 
L 230.198895 -59.511669 
L 233.90421 -59.511669 
L 237.609525 -59.511669 
L 241.31484 -59.511669 
L 245.020156 -59.511669 
L 248.725471 -59.511669 
L 252.430786 -59.511669 
L 252.430786 -129.331406 
L 252.430786 -129.331406 
L 248.725471 -135.519281 
L 245.020156 -141.887074 
L 241.31484 -148.323937 
L 237.609525 -154.713367 
L 233.90421 -160.935432 
L 230.198895 -166.869365 
L 226.49358 -172.396426 
L 222.788265 -177.402952 
L 219.082949 -181.783457 
L 215.377634 -185.44366 
L 211.672319 -188.303279 
L 207.967004 -190.298487 
L 204.261689 -191.383882 
L 200.556374 -191.533876 
L 196.851058 -190.74343 
L 193.145743 -189.028097 
L 189.440428 -186.42335 
L 185.735113 -182.983238 
L 182.029798 -178.778421 
L 178.324483 -173.893686 
L 174.619167 -168.425052 
L 170.913852 -162.476596 
L 167.208537 -156.157148 
L 163.503222 -149.576999 
L 159.797907 -142.844745 
L 156.092592 -136.064402 
L 152.387276 -129.332884 
z
" id="m6a1915b1d0" style="stroke:#ff7f0e;stroke-opacity:0.5;"/>
    </defs>
    <g clip-path="url(#ped679901a9)">
     <use style="fill:#ff7f0e;fill-opacity:0.5;stroke:#ff7f0e;stroke-opacity:0.5;" x="0" xlink:href="#m6a1915b1d0" y="423.271828"/>
    </g>
   </g>
   <g id="PolyCollection_3">
    <defs>
     <path d="M 326.043392 -129.335792 
L 326.043392 -59.511669 
L 329.748663 -59.511669 
L 333.453934 -59.511669 
L 337.159204 -59.511669 
L 340.864475 -59.511669 
L 344.569745 -59.511669 
L 348.275016 -59.511669 
L 351.980286 -59.511669 
L 355.685557 -59.511669 
L 359.390828 -59.511669 
L 363.096098 -59.511669 
L 366.801369 -59.511669 
L 370.506639 -59.511669 
L 374.21191 -59.511669 
L 377.91718 -59.511669 
L 381.622451 -59.511669 
L 385.327722 -59.511669 
L 389.032992 -59.511669 
L 392.738263 -59.511669 
L 396.443533 -59.511669 
L 400.148804 -59.511669 
L 403.854074 -59.511669 
L 407.559345 -59.511669 
L 411.264616 -59.511669 
L 414.969886 -59.511669 
L 418.675157 -59.511669 
L 422.380427 -59.511669 
L 426.085698 -59.511669 
L 426.085698 -129.330223 
L 426.085698 -129.330223 
L 422.380427 -136.061622 
L 418.675157 -142.841882 
L 414.969886 -149.574098 
L 411.264616 -156.154259 
L 407.559345 -162.473774 
L 403.854074 -168.422357 
L 400.148804 -173.891179 
L 396.443533 -178.776164 
L 392.738263 -182.981293 
L 389.032992 -186.421776 
L 385.327722 -189.026946 
L 381.622451 -190.742747 
L 377.91718 -191.533697 
L 374.21191 -191.384234 
L 370.506639 -190.299383 
L 366.801369 -188.304719 
L 363.096098 -185.445633 
L 359.390828 -181.785939 
L 355.685557 -177.405906 
L 351.980286 -172.399804 
L 348.275016 -166.87311 
L 344.569745 -160.939477 
L 340.864475 -154.717639 
L 337.159204 -148.328359 
L 333.453934 -141.891565 
L 329.748663 -135.52376 
L 326.043392 -129.335792 
z
" id="m06d1b6b02a" style="stroke:#ff7f0e;stroke-opacity:0.5;"/>
    </defs>
    <g clip-path="url(#ped679901a9)">
     <use style="fill:#ff7f0e;fill-opacity:0.5;stroke:#ff7f0e;stroke-opacity:0.5;" x="0" xlink:href="#m06d1b6b02a" y="423.271828"/>
    </g>
   </g>
   <g id="matplotlib.axis_3">
    <g id="xtick_6">
     <g id="line2d_12">
      <g>
       <use style="stroke:#000000;stroke-width:0.2;" x="114.283393" xlink:href="#md8c717954e" y="370.362849"/>
      </g>
     </g>
     <g id="text_13">
      <!-- −2 -->
      <g transform="translate(106.9123 384.461287)scale(0.1 -0.1)">
       <use xlink:href="#DejaVuSerif-2212"/>
       <use x="83.789062" xlink:href="#DejaVuSerif-32"/>
      </g>
     </g>
    </g>
    <g id="xtick_7">
     <g id="line2d_13">
      <g>
       <use style="stroke:#000000;stroke-width:0.2;" x="201.759571" xlink:href="#md8c717954e" y="370.362849"/>
      </g>
     </g>
     <g id="text_14">
      <!-- 0 -->
      <g transform="translate(198.578321 384.461287)scale(0.1 -0.1)">
       <use xlink:href="#DejaVuSerif-30"/>
      </g>
     </g>
    </g>
    <g id="xtick_8">
     <g id="line2d_14">
      <g>
       <use style="stroke:#000000;stroke-width:0.2;" x="289.235749" xlink:href="#md8c717954e" y="370.362849"/>
      </g>
     </g>
     <g id="text_15">
      <!-- 2 -->
      <g transform="translate(286.054499 384.461287)scale(0.1 -0.1)">
       <use xlink:href="#DejaVuSerif-32"/>
      </g>
     </g>
    </g>
    <g id="xtick_9">
     <g id="line2d_15">
      <g>
       <use style="stroke:#000000;stroke-width:0.2;" x="376.711927" xlink:href="#md8c717954e" y="370.362849"/>
      </g>
     </g>
     <g id="text_16">
      <!-- 4 -->
      <g transform="translate(373.530677 384.461287)scale(0.1 -0.1)">
       <use xlink:href="#DejaVuSerif-34"/>
      </g>
     </g>
    </g>
    <g id="xtick_10">
     <g id="line2d_16">
      <g>
       <use style="stroke:#000000;stroke-width:0.2;" x="464.188104" xlink:href="#md8c717954e" y="370.362849"/>
      </g>
     </g>
     <g id="text_17">
      <!-- 6 -->
      <g transform="translate(461.006854 384.461287)scale(0.1 -0.1)">
       <use xlink:href="#DejaVuSerif-36"/>
      </g>
     </g>
    </g>
    <g id="text_18">
     <!-- $\theta$ -->
     <g transform="translate(286.185749 398.139412)scale(0.1 -0.1)">
      <use transform="translate(0 0.953125)" xlink:href="#DejaVuSerif-Italic-3b8"/>
     </g>
    </g>
   </g>
   <g id="matplotlib.axis_4">
    <g id="ytick_6">
     <g id="line2d_17">
      <g>
       <use style="stroke:#000000;stroke-width:0.2;" x="70.545305" xlink:href="#mba64773a70" y="363.760158"/>
      </g>
     </g>
     <g id="text_19">
      <!-- 0 -->
      <g transform="translate(57.682805 367.559377)scale(0.1 -0.1)">
       <use xlink:href="#DejaVuSerif-30"/>
      </g>
     </g>
    </g>
    <g id="ytick_7">
     <g id="line2d_18">
      <g>
       <use style="stroke:#000000;stroke-width:0.2;" x="70.545305" xlink:href="#mba64773a70" y="293.943412"/>
      </g>
     </g>
     <g id="text_20">
      <!-- $p_{\alpha}$ -->
      <g transform="translate(52.645305 297.732475)scale(0.1 -0.1)">
       <defs>
        <path d="M 1466 1825 
L 1400 1497 
Q 1353 1250 1353 1053 
Q 1353 769 1453 581 
Q 1622 269 2059 269 
Q 2500 269 2795 622 
Q 3091 975 3225 1663 
Q 3284 1978 3284 2225 
Q 3284 2513 3200 2703 
Q 3041 3053 2600 3053 
Q 2163 3053 1872 2737 
Q 1581 2422 1466 1825 
z
M 1116 2988 
L 563 2988 
L 628 3322 
L 1756 3322 
L 1656 2803 
Q 1884 3116 2175 3264 
Q 2466 3413 2850 3413 
Q 3463 3413 3753 2928 
Q 3947 2609 3947 2163 
Q 3947 1928 3897 1663 
Q 3744 881 3262 395 
Q 2781 -91 2169 -91 
Q 1784 -91 1551 57 
Q 1319 206 1213 519 
L 850 -1331 
L 275 -1331 
L 1116 2988 
z
" id="DejaVuSerif-Italic-70" transform="scale(0.015625)"/>
        <path d="M 2597 819 
L 2406 472 
Q 2259 206 1925 31 
Q 1719 -78 1388 -78 
Q 1378 -78 1369 -78 
Q 753 -75 463 406 
Q 269 728 269 1175 
Q 269 1409 322 1675 
Q 472 2441 953 2941 
Q 1406 3409 2172 3409 
Q 2713 3409 2941 3200 
Q 3144 3013 3156 2613 
L 3159 2497 
L 3347 2844 
Q 3525 3172 3878 3334 
L 4194 3334 
L 4156 3150 
Q 3838 3056 3675 2763 
L 3178 1875 
L 3213 919 
Q 3228 428 3338 375 
Q 3375 356 3434 356 
Q 3603 356 3928 531 
L 3856 153 
Q 3509 -25 3244 -25 
Q 2966 -25 2778 169 
Q 2609 344 2603 597 
L 2597 819 
z
M 2581 1431 
L 2566 2350 
Q 2550 3081 2119 3084 
Q 1763 3084 1419 2703 
Q 1131 2388 991 1663 
Q 928 1347 928 1103 
Q 928 813 1016 622 
Q 1175 266 1550 266 
Q 1963 266 2384 1063 
L 2581 1431 
z
" id="DejaVuSerif-Italic-3b1" transform="scale(0.015625)"/>
       </defs>
       <use transform="translate(0 0.671875)" xlink:href="#DejaVuSerif-Italic-70"/>
       <use transform="translate(64.013672 -14.9)scale(0.7)" xlink:href="#DejaVuSerif-Italic-3b1"/>
      </g>
     </g>
    </g>
    <g id="ytick_8">
     <g id="line2d_19">
      <g>
       <use style="stroke:#000000;stroke-width:0.2;" x="70.545305" xlink:href="#mba64773a70" y="231.377606"/>
      </g>
     </g>
     <g id="text_21">
      <!-- 0.2 -->
      <g transform="translate(48.14218 235.176825)scale(0.1 -0.1)">
       <use xlink:href="#DejaVuSerif-30"/>
       <use x="63.623047" xlink:href="#DejaVuSerif-2e"/>
       <use x="95.410156" xlink:href="#DejaVuSerif-32"/>
      </g>
     </g>
    </g>
    <g id="text_22">
     <!-- $f(\theta)$ -->
     <g transform="translate(42.04218 306.533251)rotate(-90)scale(0.1 -0.1)">
      <use transform="translate(0 0.953125)" xlink:href="#DejaVuSerif-Italic-66"/>
      <use transform="translate(37.011719 0.953125)" xlink:href="#DejaVuSerif-28"/>
      <use transform="translate(76.025391 0.953125)" xlink:href="#DejaVuSerif-Italic-3b8"/>
      <use transform="translate(136.230469 0.953125)" xlink:href="#DejaVuSerif-29"/>
     </g>
    </g>
   </g>
   <g id="line2d_20">
    <path clip-path="url(#ped679901a9)" d="M 26.807216 363.715866 
L 44.390367 363.556175 
L 54.940258 363.288241 
L 61.973518 362.96092 
L 69.006779 362.441122 
L 76.040039 361.638833 
L 79.55667 361.095931 
L 83.0733 360.435647 
L 86.58993 359.638453 
L 90.10656 358.683027 
L 93.623191 357.546427 
L 97.139821 356.204383 
L 100.656451 354.631686 
L 104.173081 352.802703 
L 107.689712 350.692018 
L 111.206342 348.275187 
L 114.722972 345.529619 
L 118.239602 342.435546 
L 121.756233 338.977077 
L 125.272863 335.143298 
L 128.789493 330.92938 
L 132.306124 326.337648 
L 135.822754 321.378575 
L 139.339384 316.071622 
L 142.856014 310.4459 
L 146.372645 304.540578 
L 153.405905 292.098461 
L 167.472426 266.654692 
L 170.989056 260.670439 
L 174.505687 255.022379 
L 178.022317 249.803599 
L 181.538947 245.103411 
L 185.055577 241.004801 
L 188.572208 237.581972 
L 192.088838 234.89807 
L 195.605468 233.003193 
L 199.122098 231.932764 
L 202.638729 231.706344 
L 206.155359 232.326923 
L 209.671989 233.78072 
L 213.188619 236.037508 
L 216.70525 239.051434 
L 220.22188 242.762287 
L 223.73851 247.097177 
L 227.255141 251.972519 
L 230.771771 257.296256 
L 234.288401 262.970208 
L 241.321662 274.959733 
L 248.354922 287.122059 
L 251.871552 293.022207 
L 255.388183 298.680684 
L 258.904813 304.015273 
L 262.421443 308.951607 
L 265.938073 313.42367 
L 269.454704 317.37405 
L 272.971334 320.753978 
L 276.487964 323.523213 
L 280.004594 325.649827 
L 283.521225 327.109952 
L 287.037855 327.887531 
L 290.554485 327.974123 
L 294.071115 327.368794 
L 297.587746 326.078101 
L 301.104376 324.11618 
L 304.621006 321.504927 
L 308.137636 318.274228 
L 311.654267 314.462225 
L 315.170897 310.115539 
L 318.687527 305.289417 
L 322.204158 300.047739 
L 325.720788 294.462822 
L 332.754048 282.591812 
L 343.303939 264.431523 
L 346.820569 258.685847 
L 350.3372 253.265165 
L 353.85383 248.268814 
L 357.37046 243.790605 
L 360.88709 239.916455 
L 364.403721 236.722126 
L 367.920351 234.271169 
L 371.436981 232.613162 
L 374.953611 231.782335 
L 378.470242 231.79663 
L 381.986872 232.657251 
L 385.503502 234.348735 
L 389.020132 236.839529 
L 392.536763 240.083067 
L 396.053393 244.019293 
L 399.570023 248.576565 
L 403.086653 253.673866 
L 406.603284 259.223229 
L 410.119914 265.132271 
L 417.153175 277.653012 
L 427.703065 296.841862 
L 434.736326 308.994028 
L 438.252956 314.69372 
L 441.769586 320.083482 
L 445.286217 325.131718 
L 448.802847 329.816604 
L 452.319477 334.125496 
L 455.836107 338.054118 
L 459.352738 341.60561 
L 462.869368 344.789468 
L 466.385998 347.620443 
L 469.902628 350.117433 
L 473.419259 352.30242 
L 476.935889 354.199469 
L 480.452519 355.833831 
L 483.969149 357.231148 
L 487.48578 358.41679 
L 491.00241 359.415301 
L 494.51904 360.249987 
L 498.03567 360.942595 
L 505.068931 361.979659 
L 512.102191 362.66373 
L 519.135452 363.102215 
L 529.685343 363.468788 
L 543.751864 363.670316 
L 565.362437 363.74803 
L 565.362437 363.74803 
" style="fill:none;stroke:#1f77b4;stroke-linecap:square;stroke-width:1.5;"/>
   </g>
   <g id="line2d_21">
    <path clip-path="url(#ped679901a9)" d="M 26.807216 293.943412 
L 565.362437 293.943412 
" style="fill:none;stroke:#808080;stroke-dasharray:5.55,2.4;stroke-dashoffset:0;stroke-width:1.5;"/>
   </g>
   <g id="patch_10">
    <path d="M 70.545305 370.362849 
L 70.545305 225.103654 
" style="fill:none;stroke:#000000;stroke-linecap:square;stroke-linejoin:miter;stroke-width:0.2;"/>
   </g>
   <g id="patch_11">
    <path d="M 507.926193 370.362849 
L 507.926193 225.103654 
" style="fill:none;stroke:#000000;stroke-linecap:square;stroke-linejoin:miter;stroke-width:0.2;"/>
   </g>
   <g id="patch_12">
    <path d="M 70.545305 370.362849 
L 507.926193 370.362849 
" style="fill:none;stroke:#000000;stroke-linecap:square;stroke-linejoin:miter;stroke-width:0.2;"/>
   </g>
   <g id="patch_13">
    <path d="M 70.545305 225.103654 
L 507.926193 225.103654 
" style="fill:none;stroke:#000000;stroke-linecap:square;stroke-linejoin:miter;stroke-width:0.2;"/>
   </g>
   <g id="legend_2">
    <g id="patch_14">
     <path d="M 432.166818 270.603966 
L 500.926193 270.603966 
Q 502.926193 270.603966 502.926193 268.603966 
L 502.926193 232.103654 
Q 502.926193 230.103654 500.926193 230.103654 
L 432.166818 230.103654 
Q 430.166818 230.103654 430.166818 232.103654 
L 430.166818 268.603966 
Q 430.166818 270.603966 432.166818 270.603966 
z
" style="fill:#ffffff;opacity:0.8;stroke:#cccccc;stroke-linejoin:miter;"/>
    </g>
    <g id="patch_15">
     <path d="M 434.166818 254.153029 
L 454.166818 254.153029 
L 454.166818 247.153029 
L 434.166818 247.153029 
z
" style="fill:#ff7f0e;fill-opacity:0.5;stroke:#ff7f0e;stroke-linejoin:miter;stroke-opacity:0.5;"/>
    </g>
    <g id="text_23">
     <!-- High -->
     <g transform="translate(462.166818 241.702091)scale(0.1 -0.1)">
      <defs>
       <path d="M 353 0 
L 353 331 
L 947 331 
L 947 4331 
L 353 4331 
L 353 4666 
L 2175 4666 
L 2175 4331 
L 1581 4331 
L 1581 2719 
L 4000 2719 
L 4000 4331 
L 3406 4331 
L 3406 4666 
L 5228 4666 
L 5228 4331 
L 4634 4331 
L 4634 331 
L 5228 331 
L 5228 0 
L 3406 0 
L 3406 331 
L 4000 331 
L 4000 2338 
L 1581 2338 
L 1581 331 
L 2175 331 
L 2175 0 
L 353 0 
z
" id="DejaVuSerif-48" transform="scale(0.015625)"/>
       <path d="M 3359 2988 
L 3359 72 
Q 3359 -644 2965 -1033 
Q 2572 -1422 1844 -1422 
Q 1516 -1422 1216 -1362 
Q 916 -1303 641 -1184 
L 641 -488 
L 941 -488 
Q 997 -813 1206 -963 
Q 1416 -1113 1806 -1113 
Q 2313 -1113 2548 -827 
Q 2784 -541 2784 72 
L 2784 519 
Q 2616 206 2355 57 
Q 2094 -91 1709 -91 
Q 1097 -91 708 395 
Q 319 881 319 1663 
Q 319 2444 706 2928 
Q 1094 3413 1709 3413 
Q 2094 3413 2355 3264 
Q 2616 3116 2784 2803 
L 2784 3322 
L 3909 3322 
L 3909 2988 
L 3359 2988 
z
M 2784 1825 
Q 2784 2422 2554 2737 
Q 2325 3053 1888 3053 
Q 1444 3053 1217 2703 
Q 991 2353 991 1663 
Q 991 975 1217 622 
Q 1444 269 1888 269 
Q 2325 269 2554 583 
Q 2784 897 2784 1497 
L 2784 1825 
z
" id="DejaVuSerif-67" transform="scale(0.015625)"/>
       <path d="M 263 0 
L 263 331 
L 781 331 
L 781 4531 
L 231 4531 
L 231 4863 
L 1356 4863 
L 1356 2731 
Q 1516 3069 1770 3241 
Q 2025 3413 2363 3413 
Q 2913 3413 3172 3097 
Q 3431 2781 3431 2113 
L 3431 331 
L 3944 331 
L 3944 0 
L 2356 0 
L 2356 331 
L 2853 331 
L 2853 1931 
Q 2853 2541 2704 2764 
Q 2556 2988 2175 2988 
Q 1775 2988 1565 2697 
Q 1356 2406 1356 1850 
L 1356 331 
L 1856 331 
L 1856 0 
L 263 0 
z
" id="DejaVuSerif-68" transform="scale(0.015625)"/>
      </defs>
      <use xlink:href="#DejaVuSerif-48"/>
      <use x="87.207031" xlink:href="#DejaVuSerif-69"/>
      <use x="119.189453" xlink:href="#DejaVuSerif-67"/>
      <use x="183.203125" xlink:href="#DejaVuSerif-68"/>
     </g>
     <!-- density -->
     <g transform="translate(462.166818 253.042091)scale(0.1 -0.1)">
      <defs>
       <path d="M 359 184 
L 359 959 
L 691 959 
Q 703 588 923 403 
Q 1144 219 1575 219 
Q 1963 219 2166 364 
Q 2369 509 2369 788 
Q 2369 1006 2220 1140 
Q 2072 1275 1594 1428 
L 1178 1569 
Q 750 1706 558 1912 
Q 366 2119 366 2438 
Q 366 2894 700 3153 
Q 1034 3413 1625 3413 
Q 1888 3413 2178 3344 
Q 2469 3275 2778 3144 
L 2778 2419 
L 2447 2419 
Q 2434 2741 2221 2922 
Q 2009 3103 1644 3103 
Q 1281 3103 1095 2975 
Q 909 2847 909 2591 
Q 909 2381 1050 2254 
Q 1191 2128 1613 1997 
L 2069 1856 
Q 2541 1709 2748 1489 
Q 2956 1269 2956 922 
Q 2956 450 2595 179 
Q 2234 -91 1600 -91 
Q 1278 -91 972 -22 
Q 666 47 359 184 
z
" id="DejaVuSerif-73" transform="scale(0.015625)"/>
       <path d="M 1381 -609 
L 1600 -56 
L 359 2988 
L -19 2988 
L -19 3322 
L 1509 3322 
L 1509 2988 
L 978 2988 
L 1913 703 
L 2847 2988 
L 2350 2988 
L 2350 3322 
L 3597 3322 
L 3597 2988 
L 3225 2988 
L 1703 -750 
Q 1547 -1138 1356 -1280 
Q 1166 -1422 819 -1422 
Q 672 -1422 517 -1397 
Q 363 -1372 206 -1325 
L 206 -691 
L 500 -691 
Q 519 -903 608 -995 
Q 697 -1088 884 -1088 
Q 1056 -1088 1161 -992 
Q 1266 -897 1381 -609 
z
" id="DejaVuSerif-79" transform="scale(0.015625)"/>
      </defs>
      <use xlink:href="#DejaVuSerif-64"/>
      <use x="64.013672" xlink:href="#DejaVuSerif-65"/>
      <use x="123.193359" xlink:href="#DejaVuSerif-6e"/>
      <use x="187.597656" xlink:href="#DejaVuSerif-73"/>
      <use x="238.916016" xlink:href="#DejaVuSerif-69"/>
      <use x="270.898438" xlink:href="#DejaVuSerif-74"/>
      <use x="311.083984" xlink:href="#DejaVuSerif-79"/>
     </g>
     <!-- region -->
     <g transform="translate(462.166818 264.382091)scale(0.1 -0.1)">
      <defs>
       <path d="M 1925 219 
Q 2388 219 2623 584 
Q 2859 950 2859 1663 
Q 2859 2375 2623 2739 
Q 2388 3103 1925 3103 
Q 1463 3103 1227 2739 
Q 991 2375 991 1663 
Q 991 950 1228 584 
Q 1466 219 1925 219 
z
M 1925 -91 
Q 1200 -91 759 389 
Q 319 869 319 1663 
Q 319 2456 758 2934 
Q 1197 3413 1925 3413 
Q 2653 3413 3092 2934 
Q 3531 2456 3531 1663 
Q 3531 869 3092 389 
Q 2653 -91 1925 -91 
z
" id="DejaVuSerif-6f" transform="scale(0.015625)"/>
      </defs>
      <use xlink:href="#DejaVuSerif-72"/>
      <use x="47.802734" xlink:href="#DejaVuSerif-65"/>
      <use x="106.982422" xlink:href="#DejaVuSerif-67"/>
      <use x="170.996094" xlink:href="#DejaVuSerif-69"/>
      <use x="202.978516" xlink:href="#DejaVuSerif-6f"/>
      <use x="263.183594" xlink:href="#DejaVuSerif-6e"/>
     </g>
    </g>
   </g>
  </g>
 </g>
 <defs>
  <clipPath id="p56c3d585f6">
   <rect height="145.259195" width="437.380888" x="70.545305" y="50.792619"/>
  </clipPath>
  <clipPath id="ped679901a9">
   <rect height="145.259195" width="437.380888" x="70.545305" y="225.103654"/>
  </clipPath>
 </defs>
</svg>
