<?xml version="1.0" encoding="utf-8" standalone="no"?>
<!DOCTYPE svg PUBLIC "-//W3C//DTD SVG 1.1//EN"
  "http://www.w3.org/Graphics/SVG/1.1/DTD/svg11.dtd">
<svg height="345.6pt" version="1.1" viewBox="0 0 460.8 345.6" width="460.8pt" xmlns="http://www.w3.org/2000/svg" xmlns:xlink="http://www.w3.org/1999/xlink">
 <metadata>
  <rdf:RDF xmlns:cc="http://creativecommons.org/ns#" xmlns:dc="http://purl.org/dc/elements/1.1/" xmlns:rdf="http://www.w3.org/1999/02/22-rdf-syntax-ns#">
   <cc:Work>
    <dc:type rdf:resource="http://purl.org/dc/dcmitype/StillImage"/>
    <dc:date>2022-04-19T13:21:20.223267</dc:date>
    <dc:format>image/svg+xml</dc:format>
    <dc:creator>
     <cc:Agent>
      <dc:title>Matplotlib v3.4.3, https://matplotlib.org/</dc:title>
     </cc:Agent>
    </dc:creator>
   </cc:Work>
  </rdf:RDF>
 </metadata>
 <defs>
  <style type="text/css">*{stroke-linecap:butt;stroke-linejoin:round;}</style>
 </defs>
 <g id="figure_1">
  <g id="patch_1">
   <path d="M 0 345.6 
L 460.8 345.6 
L 460.8 0 
L 0 0 
z
" style="fill:none;"/>
  </g>
  <g id="axes_1">
   <g id="patch_2">
    <path d="M 57.6 302.4 
L 414.72 302.4 
L 414.72 41.472 
L 57.6 41.472 
z
" style="fill:#ffffff;"/>
   </g>
   <g id="matplotlib.axis_1">
    <g id="xtick_1">
     <g id="line2d_1">
      <defs>
       <path d="M 0 0 
L 0 3 
" id="m192a404d34" style="stroke:#000000;stroke-width:0.2;"/>
      </defs>
      <g>
       <use style="stroke:#000000;stroke-width:0.2;" x="73.832727" xlink:href="#m192a404d34" y="302.4"/>
      </g>
     </g>
     <g id="text_1">
      <!-- -4 -->
      <g transform="translate(68.961634 316.498437)scale(0.1 -0.1)">
       <defs>
        <path d="M 281 1959 
L 1881 1959 
L 1881 1472 
L 281 1472 
L 281 1959 
z
" id="DejaVuSerif-2d" transform="scale(0.015625)"/>
        <path d="M 2234 1581 
L 2234 4063 
L 641 1581 
L 2234 1581 
z
M 3609 0 
L 1484 0 
L 1484 331 
L 2234 331 
L 2234 1247 
L 197 1247 
L 197 1588 
L 2241 4750 
L 2859 4750 
L 2859 1581 
L 3750 1581 
L 3750 1247 
L 2859 1247 
L 2859 331 
L 3609 331 
L 3609 0 
z
" id="DejaVuSerif-34" transform="scale(0.015625)"/>
       </defs>
       <use xlink:href="#DejaVuSerif-2d"/>
       <use x="33.789062" xlink:href="#DejaVuSerif-34"/>
      </g>
     </g>
    </g>
    <g id="xtick_2">
     <g id="line2d_2">
      <g>
       <use style="stroke:#000000;stroke-width:0.2;" x="138.763636" xlink:href="#m192a404d34" y="302.4"/>
      </g>
     </g>
     <g id="text_2">
      <!-- -2 -->
      <g transform="translate(133.892543 316.498437)scale(0.1 -0.1)">
       <defs>
        <path d="M 819 3553 
L 469 3553 
L 469 4384 
Q 803 4563 1142 4656 
Q 1481 4750 1806 4750 
Q 2534 4750 2956 4397 
Q 3378 4044 3378 3438 
Q 3378 2753 2422 1800 
Q 2347 1728 2309 1691 
L 1131 513 
L 3078 513 
L 3078 1088 
L 3444 1088 
L 3444 0 
L 434 0 
L 434 341 
L 1850 1753 
Q 2319 2222 2519 2614 
Q 2719 3006 2719 3438 
Q 2719 3909 2473 4175 
Q 2228 4441 1797 4441 
Q 1350 4441 1106 4219 
Q 863 3997 819 3553 
z
" id="DejaVuSerif-32" transform="scale(0.015625)"/>
       </defs>
       <use xlink:href="#DejaVuSerif-2d"/>
       <use x="33.789062" xlink:href="#DejaVuSerif-32"/>
      </g>
     </g>
    </g>
    <g id="xtick_3">
     <g id="line2d_3">
      <g>
       <use style="stroke:#000000;stroke-width:0.2;" x="203.694545" xlink:href="#m192a404d34" y="302.4"/>
      </g>
     </g>
     <g id="text_3">
      <!-- 0 -->
      <g transform="translate(200.513295 316.498437)scale(0.1 -0.1)">
       <defs>
        <path d="M 2034 219 
Q 2513 219 2750 744 
Q 2988 1269 2988 2328 
Q 2988 3391 2750 3916 
Q 2513 4441 2034 4441 
Q 1556 4441 1318 3916 
Q 1081 3391 1081 2328 
Q 1081 1269 1318 744 
Q 1556 219 2034 219 
z
M 2034 -91 
Q 1275 -91 848 546 
Q 422 1184 422 2328 
Q 422 3475 848 4112 
Q 1275 4750 2034 4750 
Q 2797 4750 3222 4112 
Q 3647 3475 3647 2328 
Q 3647 1184 3222 546 
Q 2797 -91 2034 -91 
z
" id="DejaVuSerif-30" transform="scale(0.015625)"/>
       </defs>
       <use xlink:href="#DejaVuSerif-30"/>
      </g>
     </g>
    </g>
    <g id="xtick_4">
     <g id="line2d_4">
      <g>
       <use style="stroke:#000000;stroke-width:0.2;" x="241.870005" xlink:href="#m192a404d34" y="302.4"/>
      </g>
     </g>
     <g id="text_4">
      <!-- $s^*$ -->
      <g transform="translate(235.870005 316.498437)scale(0.1 -0.1)">
       <defs>
        <path d="M 222 959 
L 553 959 
Q 541 869 541 788 
Q 541 219 1313 219 
Q 2088 219 2200 788 
Q 2209 844 2209 944 
Q 2209 1041 2103 1158 
Q 1997 1275 1550 1428 
L 1159 1569 
Q 759 1706 629 1882 
Q 500 2059 500 2263 
Q 500 2344 516 2438 
Q 606 2894 990 3153 
Q 1375 3413 1931 3413 
Q 2484 3413 3066 3144 
L 2925 2419 
L 2594 2419 
Q 2606 2491 2606 2553 
Q 2606 2781 2448 2942 
Q 2291 3103 1925 3103 
Q 1191 3103 1091 2591 
Q 1078 2538 1078 2444 
Q 1078 2347 1179 2237 
Q 1281 2128 1678 1997 
L 2106 1856 
Q 2550 1709 2716 1488 
Q 2831 1331 2831 1178 
Q 2831 522 2306 181 
Q 1894 -91 1262 -91 
Q 631 -91 72 184 
L 222 959 
z
" id="DejaVuSerif-Italic-73" transform="scale(0.015625)"/>
        <path d="M 3097 3866 
L 1875 3297 
L 3097 2719 
L 2859 2350 
L 1772 3028 
L 1813 1838 
L 1388 1838 
L 1428 3028 
L 341 2350 
L 103 2719 
L 1325 3291 
L 103 3866 
L 341 4238 
L 1428 3559 
L 1388 4750 
L 1813 4750 
L 1772 3559 
L 2859 4238 
L 3097 3866 
z
" id="DejaVuSerif-2a" transform="scale(0.015625)"/>
       </defs>
       <use transform="translate(0 0.7125)" xlink:href="#DejaVuSerif-Italic-73"/>
       <use transform="translate(69.031823 37.046875)scale(0.7)" xlink:href="#DejaVuSerif-2a"/>
      </g>
     </g>
    </g>
    <g id="xtick_5">
     <g id="line2d_5">
      <g>
       <use style="stroke:#000000;stroke-width:0.2;" x="268.625455" xlink:href="#m192a404d34" y="302.4"/>
      </g>
     </g>
     <g id="text_5">
      <!-- 2 -->
      <g transform="translate(265.444205 316.498437)scale(0.1 -0.1)">
       <use xlink:href="#DejaVuSerif-32"/>
      </g>
     </g>
    </g>
    <g id="xtick_6">
     <g id="line2d_6">
      <g>
       <use style="stroke:#000000;stroke-width:0.2;" x="333.556364" xlink:href="#m192a404d34" y="302.4"/>
      </g>
     </g>
     <g id="text_6">
      <!-- 4 -->
      <g transform="translate(330.375114 316.498437)scale(0.1 -0.1)">
       <use xlink:href="#DejaVuSerif-34"/>
      </g>
     </g>
    </g>
    <g id="xtick_7">
     <g id="line2d_7">
      <g>
       <use style="stroke:#000000;stroke-width:0.2;" x="398.487273" xlink:href="#m192a404d34" y="302.4"/>
      </g>
     </g>
     <g id="text_7">
      <!-- 6 -->
      <g transform="translate(395.306023 316.498437)scale(0.1 -0.1)">
       <defs>
        <path d="M 2094 219 
Q 2534 219 2771 542 
Q 3009 866 3009 1472 
Q 3009 2078 2771 2401 
Q 2534 2725 2094 2725 
Q 1647 2725 1412 2412 
Q 1178 2100 1178 1509 
Q 1178 888 1415 553 
Q 1653 219 2094 219 
z
M 1075 2569 
Q 1288 2803 1556 2918 
Q 1825 3034 2163 3034 
Q 2859 3034 3264 2615 
Q 3669 2197 3669 1472 
Q 3669 763 3233 336 
Q 2797 -91 2069 -91 
Q 1278 -91 853 498 
Q 428 1088 428 2181 
Q 428 3406 931 4078 
Q 1434 4750 2350 4750 
Q 2597 4750 2869 4703 
Q 3141 4656 3425 4563 
L 3425 3794 
L 3072 3794 
Q 3034 4109 2831 4275 
Q 2628 4441 2284 4441 
Q 1678 4441 1381 3981 
Q 1084 3522 1075 2569 
z
" id="DejaVuSerif-36" transform="scale(0.015625)"/>
       </defs>
       <use xlink:href="#DejaVuSerif-36"/>
      </g>
     </g>
    </g>
    <g id="text_8">
     <!-- log step size -->
     <g transform="translate(204.677969 330.176562)scale(0.1 -0.1)">
      <defs>
       <path d="M 1313 331 
L 1856 331 
L 1856 0 
L 184 0 
L 184 331 
L 738 331 
L 738 4531 
L 184 4531 
L 184 4863 
L 1313 4863 
L 1313 331 
z
" id="DejaVuSerif-6c" transform="scale(0.015625)"/>
       <path d="M 1925 219 
Q 2388 219 2623 584 
Q 2859 950 2859 1663 
Q 2859 2375 2623 2739 
Q 2388 3103 1925 3103 
Q 1463 3103 1227 2739 
Q 991 2375 991 1663 
Q 991 950 1228 584 
Q 1466 219 1925 219 
z
M 1925 -91 
Q 1200 -91 759 389 
Q 319 869 319 1663 
Q 319 2456 758 2934 
Q 1197 3413 1925 3413 
Q 2653 3413 3092 2934 
Q 3531 2456 3531 1663 
Q 3531 869 3092 389 
Q 2653 -91 1925 -91 
z
" id="DejaVuSerif-6f" transform="scale(0.015625)"/>
       <path d="M 3359 2988 
L 3359 72 
Q 3359 -644 2965 -1033 
Q 2572 -1422 1844 -1422 
Q 1516 -1422 1216 -1362 
Q 916 -1303 641 -1184 
L 641 -488 
L 941 -488 
Q 997 -813 1206 -963 
Q 1416 -1113 1806 -1113 
Q 2313 -1113 2548 -827 
Q 2784 -541 2784 72 
L 2784 519 
Q 2616 206 2355 57 
Q 2094 -91 1709 -91 
Q 1097 -91 708 395 
Q 319 881 319 1663 
Q 319 2444 706 2928 
Q 1094 3413 1709 3413 
Q 2094 3413 2355 3264 
Q 2616 3116 2784 2803 
L 2784 3322 
L 3909 3322 
L 3909 2988 
L 3359 2988 
z
M 2784 1825 
Q 2784 2422 2554 2737 
Q 2325 3053 1888 3053 
Q 1444 3053 1217 2703 
Q 991 2353 991 1663 
Q 991 975 1217 622 
Q 1444 269 1888 269 
Q 2325 269 2554 583 
Q 2784 897 2784 1497 
L 2784 1825 
z
" id="DejaVuSerif-67" transform="scale(0.015625)"/>
       <path id="DejaVuSerif-20" transform="scale(0.015625)"/>
       <path d="M 359 184 
L 359 959 
L 691 959 
Q 703 588 923 403 
Q 1144 219 1575 219 
Q 1963 219 2166 364 
Q 2369 509 2369 788 
Q 2369 1006 2220 1140 
Q 2072 1275 1594 1428 
L 1178 1569 
Q 750 1706 558 1912 
Q 366 2119 366 2438 
Q 366 2894 700 3153 
Q 1034 3413 1625 3413 
Q 1888 3413 2178 3344 
Q 2469 3275 2778 3144 
L 2778 2419 
L 2447 2419 
Q 2434 2741 2221 2922 
Q 2009 3103 1644 3103 
Q 1281 3103 1095 2975 
Q 909 2847 909 2591 
Q 909 2381 1050 2254 
Q 1191 2128 1613 1997 
L 2069 1856 
Q 2541 1709 2748 1489 
Q 2956 1269 2956 922 
Q 2956 450 2595 179 
Q 2234 -91 1600 -91 
Q 1278 -91 972 -22 
Q 666 47 359 184 
z
" id="DejaVuSerif-73" transform="scale(0.015625)"/>
       <path d="M 691 2988 
L 184 2988 
L 184 3322 
L 691 3322 
L 691 4353 
L 1269 4353 
L 1269 3322 
L 2350 3322 
L 2350 2988 
L 1269 2988 
L 1269 878 
Q 1269 456 1350 337 
Q 1431 219 1650 219 
Q 1875 219 1978 351 
Q 2081 484 2088 781 
L 2522 781 
Q 2497 328 2275 118 
Q 2053 -91 1600 -91 
Q 1103 -91 897 129 
Q 691 350 691 878 
L 691 2988 
z
" id="DejaVuSerif-74" transform="scale(0.015625)"/>
       <path d="M 3469 1600 
L 991 1600 
L 991 1575 
Q 991 903 1244 561 
Q 1497 219 1991 219 
Q 2369 219 2611 417 
Q 2853 616 2950 1006 
L 3413 1006 
Q 3275 459 2904 184 
Q 2534 -91 1931 -91 
Q 1203 -91 761 389 
Q 319 869 319 1663 
Q 319 2450 753 2931 
Q 1188 3413 1894 3413 
Q 2647 3413 3050 2948 
Q 3453 2484 3469 1600 
z
M 2791 1931 
Q 2772 2513 2545 2808 
Q 2319 3103 1894 3103 
Q 1497 3103 1269 2806 
Q 1041 2509 991 1931 
L 2791 1931 
z
" id="DejaVuSerif-65" transform="scale(0.015625)"/>
       <path d="M 1313 1825 
L 1313 1497 
Q 1313 897 1542 583 
Q 1772 269 2209 269 
Q 2650 269 2876 622 
Q 3103 975 3103 1663 
Q 3103 2353 2876 2703 
Q 2650 3053 2209 3053 
Q 1772 3053 1542 2737 
Q 1313 2422 1313 1825 
z
M 738 2988 
L 184 2988 
L 184 3322 
L 1313 3322 
L 1313 2803 
Q 1481 3116 1742 3264 
Q 2003 3413 2388 3413 
Q 3000 3413 3387 2928 
Q 3775 2444 3775 1663 
Q 3775 881 3387 395 
Q 3000 -91 2388 -91 
Q 2003 -91 1742 57 
Q 1481 206 1313 519 
L 1313 -997 
L 1856 -997 
L 1856 -1331 
L 184 -1331 
L 184 -997 
L 738 -997 
L 738 2988 
z
" id="DejaVuSerif-70" transform="scale(0.015625)"/>
       <path d="M 622 4353 
Q 622 4497 726 4603 
Q 831 4709 978 4709 
Q 1122 4709 1226 4603 
Q 1331 4497 1331 4353 
Q 1331 4206 1228 4103 
Q 1125 4000 978 4000 
Q 831 4000 726 4103 
Q 622 4206 622 4353 
z
M 1356 331 
L 1900 331 
L 1900 0 
L 231 0 
L 231 331 
L 781 331 
L 781 2988 
L 231 2988 
L 231 3322 
L 1356 3322 
L 1356 331 
z
" id="DejaVuSerif-69" transform="scale(0.015625)"/>
       <path d="M 256 0 
L 256 269 
L 2338 2988 
L 691 2988 
L 691 2413 
L 359 2413 
L 359 3322 
L 3078 3322 
L 3078 3053 
L 997 331 
L 2803 331 
L 2803 934 
L 3138 934 
L 3138 0 
L 256 0 
z
" id="DejaVuSerif-7a" transform="scale(0.015625)"/>
      </defs>
      <use xlink:href="#DejaVuSerif-6c"/>
      <use x="31.982422" xlink:href="#DejaVuSerif-6f"/>
      <use x="92.1875" xlink:href="#DejaVuSerif-67"/>
      <use x="156.201172" xlink:href="#DejaVuSerif-20"/>
      <use x="187.988281" xlink:href="#DejaVuSerif-73"/>
      <use x="239.306641" xlink:href="#DejaVuSerif-74"/>
      <use x="279.492188" xlink:href="#DejaVuSerif-65"/>
      <use x="338.671875" xlink:href="#DejaVuSerif-70"/>
      <use x="402.685547" xlink:href="#DejaVuSerif-20"/>
      <use x="434.472656" xlink:href="#DejaVuSerif-73"/>
      <use x="485.791016" xlink:href="#DejaVuSerif-69"/>
      <use x="517.773438" xlink:href="#DejaVuSerif-7a"/>
      <use x="570.458984" xlink:href="#DejaVuSerif-65"/>
     </g>
    </g>
   </g>
   <g id="matplotlib.axis_2">
    <g id="ytick_1">
     <g id="line2d_8">
      <defs>
       <path d="M 0 0 
L -3 0 
" id="mb75326cb2f" style="stroke:#000000;stroke-width:0.2;"/>
      </defs>
      <g>
       <use style="stroke:#000000;stroke-width:0.2;" x="57.6" xlink:href="#mb75326cb2f" y="299.841882"/>
      </g>
     </g>
     <g id="text_9">
      <!-- 0 -->
      <g transform="translate(44.7375 303.641101)scale(0.1 -0.1)">
       <use xlink:href="#DejaVuSerif-30"/>
      </g>
     </g>
    </g>
    <g id="ytick_2">
     <g id="line2d_9">
      <g>
       <use style="stroke:#000000;stroke-width:0.2;" x="57.6" xlink:href="#mb75326cb2f" y="248.679529"/>
      </g>
     </g>
     <g id="text_10">
      <!-- 0.2 -->
      <g transform="translate(35.196875 252.478748)scale(0.1 -0.1)">
       <defs>
        <path d="M 603 325 
Q 603 500 722 622 
Q 841 744 1019 744 
Q 1191 744 1312 622 
Q 1434 500 1434 325 
Q 1434 153 1312 31 
Q 1191 -91 1019 -91 
Q 841 -91 722 29 
Q 603 150 603 325 
z
" id="DejaVuSerif-2e" transform="scale(0.015625)"/>
       </defs>
       <use xlink:href="#DejaVuSerif-30"/>
       <use x="63.623047" xlink:href="#DejaVuSerif-2e"/>
       <use x="95.410156" xlink:href="#DejaVuSerif-32"/>
      </g>
     </g>
    </g>
    <g id="ytick_3">
     <g id="line2d_10">
      <g>
       <use style="stroke:#000000;stroke-width:0.2;" x="57.6" xlink:href="#mb75326cb2f" y="239.981929"/>
      </g>
     </g>
     <g id="text_11">
      <!-- $\alpha^*$ -->
      <g transform="translate(37.4 243.781148)scale(0.1 -0.1)">
       <defs>
        <path d="M 2597 819 
L 2406 472 
Q 2259 206 1925 31 
Q 1719 -78 1388 -78 
Q 1378 -78 1369 -78 
Q 753 -75 463 406 
Q 269 728 269 1175 
Q 269 1409 322 1675 
Q 472 2441 953 2941 
Q 1406 3409 2172 3409 
Q 2713 3409 2941 3200 
Q 3144 3013 3156 2613 
L 3159 2497 
L 3347 2844 
Q 3525 3172 3878 3334 
L 4194 3334 
L 4156 3150 
Q 3838 3056 3675 2763 
L 3178 1875 
L 3213 919 
Q 3228 428 3338 375 
Q 3375 356 3434 356 
Q 3603 356 3928 531 
L 3856 153 
Q 3509 -25 3244 -25 
Q 2966 -25 2778 169 
Q 2609 344 2603 597 
L 2597 819 
z
M 2581 1431 
L 2566 2350 
Q 2550 3081 2119 3084 
Q 1763 3084 1419 2703 
Q 1131 2388 991 1663 
Q 928 1347 928 1103 
Q 928 813 1016 622 
Q 1175 266 1550 266 
Q 1963 266 2384 1063 
L 2581 1431 
z
" id="DejaVuSerif-Italic-3b1" transform="scale(0.015625)"/>
       </defs>
       <use transform="translate(0 0.7125)" xlink:href="#DejaVuSerif-Italic-3b1"/>
       <use transform="translate(85.23401 37.046875)scale(0.7)" xlink:href="#DejaVuSerif-2a"/>
      </g>
     </g>
    </g>
    <g id="ytick_4">
     <g id="line2d_11">
      <g>
       <use style="stroke:#000000;stroke-width:0.2;" x="57.6" xlink:href="#mb75326cb2f" y="197.517176"/>
      </g>
     </g>
     <g id="text_12">
      <!-- 0.4 -->
      <g transform="translate(35.196875 201.316395)scale(0.1 -0.1)">
       <use xlink:href="#DejaVuSerif-30"/>
       <use x="63.623047" xlink:href="#DejaVuSerif-2e"/>
       <use x="95.410156" xlink:href="#DejaVuSerif-34"/>
      </g>
     </g>
    </g>
    <g id="ytick_5">
     <g id="line2d_12">
      <g>
       <use style="stroke:#000000;stroke-width:0.2;" x="57.6" xlink:href="#mb75326cb2f" y="146.354824"/>
      </g>
     </g>
     <g id="text_13">
      <!-- 0.6 -->
      <g transform="translate(35.196875 150.154042)scale(0.1 -0.1)">
       <use xlink:href="#DejaVuSerif-30"/>
       <use x="63.623047" xlink:href="#DejaVuSerif-2e"/>
       <use x="95.410156" xlink:href="#DejaVuSerif-36"/>
      </g>
     </g>
    </g>
    <g id="ytick_6">
     <g id="line2d_13">
      <g>
       <use style="stroke:#000000;stroke-width:0.2;" x="57.6" xlink:href="#mb75326cb2f" y="95.192471"/>
      </g>
     </g>
     <g id="text_14">
      <!-- 0.8 -->
      <g transform="translate(35.196875 98.991689)scale(0.1 -0.1)">
       <defs>
        <path d="M 2981 1275 
Q 2981 1775 2732 2051 
Q 2484 2328 2034 2328 
Q 1584 2328 1336 2051 
Q 1088 1775 1088 1275 
Q 1088 772 1336 495 
Q 1584 219 2034 219 
Q 2484 219 2732 495 
Q 2981 772 2981 1275 
z
M 2853 3541 
Q 2853 3966 2637 4203 
Q 2422 4441 2034 4441 
Q 1650 4441 1433 4203 
Q 1216 3966 1216 3541 
Q 1216 3113 1433 2875 
Q 1650 2638 2034 2638 
Q 2422 2638 2637 2875 
Q 2853 3113 2853 3541 
z
M 2516 2484 
Q 3047 2413 3344 2092 
Q 3641 1772 3641 1275 
Q 3641 619 3225 264 
Q 2809 -91 2034 -91 
Q 1263 -91 845 264 
Q 428 619 428 1275 
Q 428 1772 725 2092 
Q 1022 2413 1556 2484 
Q 1084 2569 832 2842 
Q 581 3116 581 3541 
Q 581 4103 968 4426 
Q 1356 4750 2034 4750 
Q 2713 4750 3100 4426 
Q 3488 4103 3488 3541 
Q 3488 3116 3236 2842 
Q 2984 2569 2516 2484 
z
" id="DejaVuSerif-38" transform="scale(0.015625)"/>
       </defs>
       <use xlink:href="#DejaVuSerif-30"/>
       <use x="63.623047" xlink:href="#DejaVuSerif-2e"/>
       <use x="95.410156" xlink:href="#DejaVuSerif-38"/>
      </g>
     </g>
    </g>
    <g id="ytick_7">
     <g id="line2d_14">
      <g>
       <use style="stroke:#000000;stroke-width:0.2;" x="57.6" xlink:href="#mb75326cb2f" y="44.030118"/>
      </g>
     </g>
     <g id="text_15">
      <!-- 1 -->
      <g transform="translate(44.7375 47.829336)scale(0.1 -0.1)">
       <defs>
        <path d="M 909 0 
L 909 331 
L 1722 331 
L 1722 4213 
L 781 3603 
L 781 4013 
L 1919 4750 
L 2350 4750 
L 2350 331 
L 3163 331 
L 3163 0 
L 909 0 
z
" id="DejaVuSerif-31" transform="scale(0.015625)"/>
       </defs>
       <use xlink:href="#DejaVuSerif-31"/>
      </g>
     </g>
    </g>
    <g id="text_16">
     <!-- Acceptance rate / score -->
     <g transform="translate(29.117187 231.793812)rotate(-90)scale(0.1 -0.1)">
      <defs>
       <path d="M 1281 1691 
L 2994 1691 
L 2138 3909 
L 1281 1691 
z
M -38 0 
L -38 331 
L 372 331 
L 2034 4666 
L 2559 4666 
L 4225 331 
L 4684 331 
L 4684 0 
L 2988 0 
L 2988 331 
L 3506 331 
L 3116 1356 
L 1153 1356 
L 763 331 
L 1275 331 
L 1275 0 
L -38 0 
z
" id="DejaVuSerif-41" transform="scale(0.015625)"/>
       <path d="M 3291 997 
Q 3169 466 2822 187 
Q 2475 -91 1925 -91 
Q 1200 -91 759 389 
Q 319 869 319 1663 
Q 319 2459 759 2936 
Q 1200 3413 1925 3413 
Q 2241 3413 2553 3339 
Q 2866 3266 3181 3116 
L 3181 2266 
L 2847 2266 
Q 2781 2703 2561 2903 
Q 2341 3103 1931 3103 
Q 1466 3103 1228 2742 
Q 991 2381 991 1663 
Q 991 944 1227 581 
Q 1463 219 1931 219 
Q 2303 219 2525 412 
Q 2747 606 2828 997 
L 3291 997 
z
" id="DejaVuSerif-63" transform="scale(0.015625)"/>
       <path d="M 2547 1044 
L 2547 1747 
L 1806 1747 
Q 1378 1747 1168 1562 
Q 959 1378 959 997 
Q 959 650 1171 447 
Q 1384 244 1747 244 
Q 2106 244 2326 466 
Q 2547 688 2547 1044 
z
M 3122 2075 
L 3122 331 
L 3634 331 
L 3634 0 
L 2547 0 
L 2547 359 
Q 2356 128 2106 18 
Q 1856 -91 1522 -91 
Q 969 -91 644 203 
Q 319 497 319 997 
Q 319 1513 691 1797 
Q 1063 2081 1741 2081 
L 2547 2081 
L 2547 2309 
Q 2547 2688 2317 2895 
Q 2088 3103 1672 3103 
Q 1328 3103 1125 2947 
Q 922 2791 872 2484 
L 575 2484 
L 575 3156 
Q 875 3284 1158 3348 
Q 1441 3413 1709 3413 
Q 2400 3413 2761 3070 
Q 3122 2728 3122 2075 
z
" id="DejaVuSerif-61" transform="scale(0.015625)"/>
       <path d="M 263 0 
L 263 331 
L 781 331 
L 781 2988 
L 231 2988 
L 231 3322 
L 1356 3322 
L 1356 2731 
Q 1516 3069 1770 3241 
Q 2025 3413 2363 3413 
Q 2913 3413 3172 3097 
Q 3431 2781 3431 2113 
L 3431 331 
L 3944 331 
L 3944 0 
L 2356 0 
L 2356 331 
L 2853 331 
L 2853 1931 
Q 2853 2541 2703 2767 
Q 2553 2994 2175 2994 
Q 1775 2994 1565 2701 
Q 1356 2409 1356 1850 
L 1356 331 
L 1856 331 
L 1856 0 
L 263 0 
z
" id="DejaVuSerif-6e" transform="scale(0.015625)"/>
       <path d="M 3059 3328 
L 3059 2497 
L 2728 2497 
Q 2713 2744 2591 2866 
Q 2469 2988 2234 2988 
Q 1809 2988 1582 2694 
Q 1356 2400 1356 1850 
L 1356 331 
L 2022 331 
L 2022 0 
L 263 0 
L 263 331 
L 781 331 
L 781 2994 
L 231 2994 
L 231 3322 
L 1356 3322 
L 1356 2731 
Q 1525 3078 1790 3245 
Q 2056 3413 2438 3413 
Q 2578 3413 2733 3391 
Q 2888 3369 3059 3328 
z
" id="DejaVuSerif-72" transform="scale(0.015625)"/>
       <path d="M 1656 4666 
L 2156 4666 
L 500 -594 
L 0 -594 
L 1656 4666 
z
" id="DejaVuSerif-2f" transform="scale(0.015625)"/>
      </defs>
      <use xlink:href="#DejaVuSerif-41"/>
      <use x="72.216797" xlink:href="#DejaVuSerif-63"/>
      <use x="128.222656" xlink:href="#DejaVuSerif-63"/>
      <use x="184.228516" xlink:href="#DejaVuSerif-65"/>
      <use x="243.408203" xlink:href="#DejaVuSerif-70"/>
      <use x="307.421875" xlink:href="#DejaVuSerif-74"/>
      <use x="347.607422" xlink:href="#DejaVuSerif-61"/>
      <use x="407.226562" xlink:href="#DejaVuSerif-6e"/>
      <use x="471.630859" xlink:href="#DejaVuSerif-63"/>
      <use x="527.636719" xlink:href="#DejaVuSerif-65"/>
      <use x="586.816406" xlink:href="#DejaVuSerif-20"/>
      <use x="618.603516" xlink:href="#DejaVuSerif-72"/>
      <use x="666.40625" xlink:href="#DejaVuSerif-61"/>
      <use x="726.025391" xlink:href="#DejaVuSerif-74"/>
      <use x="766.210938" xlink:href="#DejaVuSerif-65"/>
      <use x="825.390625" xlink:href="#DejaVuSerif-20"/>
      <use x="857.177734" xlink:href="#DejaVuSerif-2f"/>
      <use x="890.869141" xlink:href="#DejaVuSerif-20"/>
      <use x="922.65625" xlink:href="#DejaVuSerif-73"/>
      <use x="973.974609" xlink:href="#DejaVuSerif-63"/>
      <use x="1029.980469" xlink:href="#DejaVuSerif-6f"/>
      <use x="1090.185547" xlink:href="#DejaVuSerif-72"/>
      <use x="1137.988281" xlink:href="#DejaVuSerif-65"/>
     </g>
    </g>
   </g>
   <g id="line2d_15">
    <path clip-path="url(#pb61b377a2a)" d="M 73.832727 48.631202 
L 80.358447 49.633109 
L 86.884166 50.847266 
L 93.409886 52.315816 
L 98.304175 53.613479 
L 103.198465 55.105282 
L 108.092755 56.817248 
L 112.987044 58.777897 
L 117.881334 61.018159 
L 122.775624 63.571141 
L 127.669913 66.471737 
L 130.932773 68.61637 
L 134.195633 70.94232 
L 137.458492 73.460306 
L 140.721352 76.180792 
L 143.984212 79.113783 
L 147.247072 82.268595 
L 150.509931 85.6536 
L 153.772791 89.275943 
L 157.035651 93.141244 
L 160.298511 97.25329 
L 163.56137 101.613718 
L 168.45566 108.617563 
L 173.34995 116.163293 
L 178.244239 124.220899 
L 183.138529 132.743858 
L 188.032819 141.669046 
L 194.558538 154.057023 
L 204.347117 173.221443 
L 214.135697 192.328315 
L 220.661416 204.618149 
L 225.555706 213.443157 
L 230.449995 221.847518 
L 235.344285 229.772481 
L 240.238575 237.175978 
L 245.132864 244.032266 
L 248.395724 248.293294 
L 251.658584 252.306318 
L 254.921444 256.073872 
L 258.184303 259.600513 
L 261.447163 262.892508 
L 264.710023 265.957529 
L 267.972883 268.804356 
L 271.235742 271.44261 
L 274.498602 273.882508 
L 279.392892 277.193651 
L 284.287181 280.118694 
L 289.181471 282.693749 
L 294.075761 284.953806 
L 298.97005 286.932109 
L 303.86434 288.659739 
L 308.75863 290.165382 
L 313.652919 291.475228 
L 320.178639 292.957727 
L 326.704358 294.183547 
L 333.230078 295.195167 
L 341.387227 296.212915 
L 349.544376 297.010263 
L 359.332956 297.741275 
L 370.752965 298.360603 
L 383.804404 298.849042 
L 398.487273 299.209356 
L 398.487273 299.209356 
" style="fill:none;stroke:#1f77b4;stroke-linecap:square;stroke-width:1.5;"/>
   </g>
   <g id="line2d_16">
    <path clip-path="url(#pb61b377a2a)" d="M 73.832727 235.380845 
L 80.358447 234.378938 
L 86.884166 233.164781 
L 93.409886 231.696231 
L 98.304175 230.398568 
L 103.198465 228.906765 
L 108.092755 227.194799 
L 112.987044 225.23415 
L 117.881334 222.993888 
L 122.775624 220.440906 
L 127.669913 217.54031 
L 130.932773 215.395677 
L 134.195633 213.069727 
L 137.458492 210.551741 
L 140.721352 207.831255 
L 143.984212 204.898264 
L 147.247072 201.743452 
L 150.509931 198.358447 
L 153.772791 194.736104 
L 157.035651 190.870803 
L 160.298511 186.758757 
L 163.56137 182.398329 
L 168.45566 175.394484 
L 173.34995 167.848754 
L 178.244239 159.791148 
L 183.138529 151.268189 
L 188.032819 142.343001 
L 194.558538 129.955024 
L 204.347117 110.790604 
L 214.135697 91.683732 
L 220.661416 79.393898 
L 225.555706 70.56889 
L 230.449995 62.164529 
L 235.344285 54.239566 
L 240.238575 46.836069 
L 241.870005 44.489018 
L 243.501434 45.856775 
L 248.395724 52.341482 
L 251.658584 56.354506 
L 254.921444 60.12206 
L 258.184303 63.648701 
L 261.447163 66.940697 
L 264.710023 70.005717 
L 267.972883 72.852544 
L 271.235742 75.490799 
L 274.498602 77.930696 
L 279.392892 81.241839 
L 284.287181 84.166883 
L 289.181471 86.741937 
L 294.075761 89.001994 
L 298.97005 90.980297 
L 303.86434 92.707927 
L 308.75863 94.21357 
L 313.652919 95.523416 
L 320.178639 97.005915 
L 326.704358 98.231735 
L 333.230078 99.243355 
L 341.387227 100.261103 
L 349.544376 101.058451 
L 359.332956 101.789463 
L 370.752965 102.408792 
L 383.804404 102.89723 
L 398.487273 103.257544 
L 398.487273 103.257544 
" style="fill:none;stroke:#ff7f0e;stroke-linecap:square;stroke-width:1.5;"/>
   </g>
   <g id="line2d_17">
    <path clip-path="url(#pb61b377a2a)" d="M 73.832727 187.163101 
L 80.358447 185.668143 
L 85.252736 184.348924 
L 90.147026 182.834456 
L 95.041316 181.099344 
L 99.935605 179.116065 
L 104.829895 176.855193 
L 109.724185 174.285817 
L 114.618474 171.376169 
L 119.512764 168.094555 
L 122.775624 165.685062 
L 126.038483 163.088342 
L 129.301343 160.296878 
L 132.564203 157.304286 
L 135.827063 154.105638 
L 140.721352 148.915101 
L 145.615642 143.253658 
L 150.509931 137.134644 
L 155.404221 130.5884 
L 160.298511 123.664706 
L 166.82423 113.971367 
L 188.032819 81.813458 
L 192.927108 75.03894 
L 196.189968 70.806855 
L 199.452828 66.841383 
L 202.715688 63.170607 
L 205.978547 59.816813 
L 209.241407 56.79592 
L 212.504267 54.117197 
L 215.767127 51.783251 
L 219.029986 49.790287 
L 222.292846 48.128612 
L 225.555706 46.783339 
L 228.818566 45.735238 
L 232.081425 44.961674 
L 235.344285 44.437577 
L 238.607145 44.136387 
L 241.870005 44.030941 
L 245.132864 44.094248 
L 250.027154 44.448773 
L 254.921444 45.042388 
L 261.447163 46.081996 
L 272.867172 48.211325 
L 285.918611 50.611696 
L 295.70719 52.180369 
L 305.49577 53.493858 
L 315.284349 54.555948 
L 325.072928 55.394021 
L 336.492937 56.136474 
L 349.544376 56.743492 
L 364.227245 57.203652 
L 383.804404 57.576551 
L 398.487273 57.742888 
L 398.487273 57.742888 
" style="fill:none;stroke:#2ca02c;stroke-linecap:square;stroke-width:1.5;"/>
   </g>
   <g id="line2d_18">
    <path clip-path="url(#pb61b377a2a)" d="M 73.832727 293.835245 
L 80.358447 292.527272 
L 86.884166 290.94221 
L 91.778456 289.538817 
L 96.672746 287.922236 
L 101.567035 286.062808 
L 106.461325 283.927649 
L 111.355614 281.480607 
L 116.249904 278.68233 
L 119.512764 276.600894 
L 122.775624 274.331407 
L 126.038483 271.860263 
L 129.301343 269.173545 
L 132.564203 266.257171 
L 135.827063 263.097067 
L 139.089922 259.679376 
L 142.352782 255.9907 
L 145.615642 252.01839 
L 148.878502 247.750854 
L 152.141361 243.177919 
L 155.404221 238.2912 
L 158.667081 233.084506 
L 161.929941 227.554248 
L 165.1928 221.699836 
L 168.45566 215.524068 
L 173.34995 205.673246 
L 178.244239 195.154178 
L 183.138529 184.0276 
L 188.032819 172.375918 
L 194.558538 156.203624 
L 204.347117 131.1848 
L 214.135697 106.241103 
L 220.661416 90.196933 
L 225.555706 78.676034 
L 230.449995 67.704285 
L 235.344285 57.358379 
L 240.238575 47.69324 
L 241.870005 44.629205 
L 243.501434 51.836346 
L 246.764294 70.576793 
L 250.027154 88.255631 
L 253.290014 104.878871 
L 256.552873 120.461835 
L 259.815733 135.027818 
L 263.078593 148.606762 
L 266.341453 161.233973 
L 269.604312 172.948912 
L 272.867172 183.794088 
L 276.130032 193.814061 
L 279.392892 203.054568 
L 282.655751 211.561766 
L 285.918611 219.381596 
L 289.181471 226.559261 
L 292.444331 233.138796 
L 295.70719 239.162744 
L 298.97005 244.67191 
L 302.23291 249.705176 
L 305.49577 254.299394 
L 308.75863 258.489315 
L 312.021489 262.307573 
L 315.284349 265.784691 
L 318.547209 268.949119 
L 321.810069 271.827302 
L 325.072928 274.443744 
L 328.335788 276.821103 
L 331.598648 278.98028 
L 334.861508 280.940518 
L 338.124367 282.719507 
L 343.018657 285.083273 
L 347.912947 287.124575 
L 352.807236 288.886408 
L 357.701526 290.40629 
L 362.595815 291.716899 
L 369.121535 293.187385 
L 375.647254 294.393074 
L 382.172974 295.381208 
L 390.330123 296.369119 
L 398.487273 297.138779 
L 398.487273 297.138779 
" style="fill:none;stroke:#d62728;stroke-linecap:square;stroke-width:1.5;"/>
   </g>
   <g id="line2d_19">
    <path clip-path="url(#pb61b377a2a)" d="M 73.832727 287.969648 
L 78.727017 286.104243 
L 83.621307 283.957874 
L 88.515596 281.492329 
L 91.778456 279.650717 
L 95.041316 277.635273 
L 98.304175 275.431919 
L 101.567035 273.025932 
L 104.829895 270.402026 
L 108.092755 267.544472 
L 111.355614 264.43724 
L 114.618474 261.064203 
L 117.881334 257.40937 
L 121.144194 253.457186 
L 124.407053 249.192878 
L 127.669913 244.602867 
L 130.932773 239.675243 
L 134.195633 234.400293 
L 137.458492 228.771088 
L 140.721352 222.78412 
L 143.984212 216.439963 
L 147.247072 209.743954 
L 152.141361 199.06539 
L 157.035651 187.683134 
L 161.929941 175.693751 
L 168.45566 158.99815 
L 186.401389 112.434132 
L 191.295678 100.637418 
L 194.558538 93.218221 
L 197.821398 86.226178 
L 201.084258 79.713611 
L 204.347117 73.723586 
L 207.609977 68.288752 
L 210.872837 63.430605 
L 214.135697 59.159237 
L 217.398556 55.473552 
L 220.661416 52.361927 
L 223.924276 49.803247 
L 227.187136 47.768248 
L 230.449995 46.22105 
L 233.712855 45.120793 
L 236.975715 44.423287 
L 240.238575 44.082572 
L 241.870005 44.031521 
L 243.501434 44.268329 
L 245.132864 45.201315 
L 246.764294 46.784979 
L 248.395724 48.96177 
L 250.027154 51.675958 
L 251.658584 54.873844 
L 253.290014 58.503927 
L 254.921444 62.517044 
L 258.184303 71.507988 
L 261.447163 81.503241 
L 264.710023 92.20037 
L 271.235742 114.691806 
L 279.392892 142.887087 
L 284.287181 159.039296 
L 289.181471 174.269976 
L 292.444331 183.828583 
L 295.70719 192.876837 
L 298.97005 201.40024 
L 302.23291 209.394794 
L 305.49577 216.864891 
L 308.75863 223.821487 
L 312.021489 230.280534 
L 315.284349 236.261662 
L 318.547209 241.787079 
L 321.810069 246.880668 
L 325.072928 251.567247 
L 328.335788 255.871988 
L 331.598648 259.819953 
L 334.861508 263.435734 
L 338.124367 266.743191 
L 341.387227 269.765252 
L 344.650087 272.523781 
L 347.912947 275.03949 
L 351.175806 277.331891 
L 354.438666 279.419277 
L 357.701526 281.318729 
L 362.595815 283.849977 
L 367.490105 286.04268 
L 372.384395 287.940195 
L 377.278684 289.580835 
L 382.172974 290.998316 
L 387.067264 292.22221 
L 393.592983 293.597142 
L 398.487273 294.464239 
L 398.487273 294.464239 
" style="fill:none;stroke:#9467bd;stroke-linecap:square;stroke-width:1.5;"/>
   </g>
   <g id="line2d_20">
    <path clip-path="url(#pb61b377a2a)" d="M 241.870005 346.6 
L 241.870005 -1 
" style="fill:none;stroke:#808080;stroke-dasharray:5.55,2.4;stroke-dashoffset:0;stroke-width:1.5;"/>
   </g>
   <g id="line2d_21">
    <path clip-path="url(#pb61b377a2a)" d="M -1 239.981929 
L 461.8 239.981929 
" style="fill:none;stroke:#808080;stroke-dasharray:5.55,2.4;stroke-dashoffset:0;stroke-width:1.5;"/>
   </g>
   <g id="patch_3">
    <path d="M 57.6 302.4 
L 57.6 41.472 
" style="fill:none;stroke:#000000;stroke-linecap:square;stroke-linejoin:miter;stroke-width:0.2;"/>
   </g>
   <g id="patch_4">
    <path d="M 414.72 302.4 
L 414.72 41.472 
" style="fill:none;stroke:#000000;stroke-linecap:square;stroke-linejoin:miter;stroke-width:0.2;"/>
   </g>
   <g id="patch_5">
    <path d="M 57.6 302.4 
L 414.72 302.4 
" style="fill:none;stroke:#000000;stroke-linecap:square;stroke-linejoin:miter;stroke-width:0.2;"/>
   </g>
   <g id="patch_6">
    <path d="M 57.6 41.472 
L 414.72 41.472 
" style="fill:none;stroke:#000000;stroke-linecap:square;stroke-linejoin:miter;stroke-width:0.2;"/>
   </g>
   <g id="legend_1">
    <g id="patch_7">
     <path d="M 312.02 219.025062 
L 407.72 219.025062 
Q 409.72 219.025062 409.72 217.025062 
L 409.72 126.846937 
Q 409.72 124.846937 407.72 124.846937 
L 312.02 124.846937 
Q 310.02 124.846937 310.02 126.846937 
L 310.02 217.025062 
Q 310.02 219.025062 312.02 219.025062 
z
" style="fill:#ffffff;opacity:0.8;stroke:#cccccc;stroke-linejoin:miter;"/>
    </g>
    <g id="line2d_22">
     <path d="M 314.02 132.945375 
L 334.02 132.945375 
" style="fill:none;stroke:#1f77b4;stroke-linecap:square;stroke-width:1.5;"/>
    </g>
    <g id="line2d_23"/>
    <g id="text_17">
     <!-- $\alpha$ -->
     <g transform="translate(342.02 136.445375)scale(0.1 -0.1)">
      <use transform="translate(0 0.734375)" xlink:href="#DejaVuSerif-Italic-3b1"/>
     </g>
    </g>
    <g id="line2d_24">
     <path d="M 314.02 148.925062 
L 334.02 148.925062 
" style="fill:none;stroke:#ff7f0e;stroke-linecap:square;stroke-width:1.5;"/>
    </g>
    <g id="line2d_25"/>
    <g id="text_18">
     <!-- $1 - |\alpha - \alpha^*|$ -->
     <g transform="translate(342.02 152.425062)scale(0.1 -0.1)">
      <defs>
       <path d="M 678 2259 
L 4684 2259 
L 4684 1753 
L 678 1753 
L 678 2259 
z
" id="DejaVuSerif-2212" transform="scale(0.015625)"/>
       <path d="M 1331 4891 
L 1331 -1509 
L 825 -1509 
L 825 4891 
L 1331 4891 
z
" id="DejaVuSerif-7c" transform="scale(0.015625)"/>
      </defs>
      <use transform="translate(0 0.7125)" xlink:href="#DejaVuSerif-31"/>
      <use transform="translate(82.587891 0.7125)" xlink:href="#DejaVuSerif-2212"/>
      <use transform="translate(185.341797 0.7125)" xlink:href="#DejaVuSerif-7c"/>
      <use transform="translate(219.033203 0.7125)" xlink:href="#DejaVuSerif-Italic-3b1"/>
      <use transform="translate(305.527344 0.7125)" xlink:href="#DejaVuSerif-2212"/>
      <use transform="translate(408.28125 0.7125)" xlink:href="#DejaVuSerif-Italic-3b1"/>
      <use transform="translate(493.51526 37.046875)scale(0.7)" xlink:href="#DejaVuSerif-2a"/>
      <use transform="translate(544.385964 0.7125)" xlink:href="#DejaVuSerif-7c"/>
     </g>
    </g>
    <g id="line2d_26">
     <path d="M 314.02 164.745375 
L 334.02 164.745375 
" style="fill:none;stroke:#2ca02c;stroke-linecap:square;stroke-width:1.5;"/>
    </g>
    <g id="line2d_27"/>
    <g id="text_19">
     <!-- $1 - (\alpha - \alpha^*)^2$ -->
     <g transform="translate(342.02 168.245375)scale(0.1 -0.1)">
      <defs>
       <path d="M 2041 -997 
Q 1281 -656 893 83 
Q 506 822 506 1931 
Q 506 3044 893 3783 
Q 1281 4522 2041 4863 
L 2041 4556 
Q 1559 4225 1350 3623 
Q 1141 3022 1141 1931 
Q 1141 844 1350 242 
Q 1559 -359 2041 -691 
L 2041 -997 
z
" id="DejaVuSerif-28" transform="scale(0.015625)"/>
       <path d="M 453 -997 
L 453 -691 
Q 934 -359 1145 242 
Q 1356 844 1356 1931 
Q 1356 3022 1145 3623 
Q 934 4225 453 4556 
L 453 4863 
Q 1216 4522 1603 3783 
Q 1991 3044 1991 1931 
Q 1991 822 1603 83 
Q 1216 -656 453 -997 
z
" id="DejaVuSerif-29" transform="scale(0.015625)"/>
      </defs>
      <use transform="translate(0 0.7125)" xlink:href="#DejaVuSerif-31"/>
      <use transform="translate(82.587891 0.7125)" xlink:href="#DejaVuSerif-2212"/>
      <use transform="translate(185.341797 0.7125)" xlink:href="#DejaVuSerif-28"/>
      <use transform="translate(224.355469 0.7125)" xlink:href="#DejaVuSerif-Italic-3b1"/>
      <use transform="translate(310.849609 0.7125)" xlink:href="#DejaVuSerif-2212"/>
      <use transform="translate(413.603516 0.7125)" xlink:href="#DejaVuSerif-Italic-3b1"/>
      <use transform="translate(498.837526 37.046875)scale(0.7)" xlink:href="#DejaVuSerif-2a"/>
      <use transform="translate(549.708229 0.7125)" xlink:href="#DejaVuSerif-29"/>
      <use transform="translate(589.63026 37.046875)scale(0.7)" xlink:href="#DejaVuSerif-32"/>
     </g>
    </g>
    <g id="line2d_28">
     <path d="M 314.02 183.525062 
L 334.02 183.525062 
" style="fill:none;stroke:#d62728;stroke-linecap:square;stroke-width:1.5;"/>
    </g>
    <g id="line2d_29"/>
    <g id="text_20">
     <!-- $1 - \frac{(\alpha - \alpha^*)}{Z(\alpha)}$ -->
     <g transform="translate(342.02 187.025062)scale(0.1 -0.1)">
      <defs>
       <path d="M -166 0 
L -122 225 
L 3572 4281 
L 1159 4281 
L 1025 3584 
L 641 3584 
L 850 4666 
L 4538 4666 
L 4494 4441 
L 800 384 
L 3438 384 
L 3563 1038 
L 3944 1038 
L 3744 0 
L -166 0 
z
" id="DejaVuSerif-Italic-5a" transform="scale(0.015625)"/>
      </defs>
      <use transform="translate(0 0.4425)" xlink:href="#DejaVuSerif-31"/>
      <use transform="translate(82.587891 0.4425)" xlink:href="#DejaVuSerif-2212"/>
      <use transform="translate(185.341797 55.19875)scale(0.7)" xlink:href="#DejaVuSerif-28"/>
      <use transform="translate(212.651367 55.19875)scale(0.7)" xlink:href="#DejaVuSerif-Italic-3b1"/>
      <use transform="translate(273.197266 55.19875)scale(0.7)" xlink:href="#DejaVuSerif-2212"/>
      <use transform="translate(345.125 55.19875)scale(0.7)" xlink:href="#DejaVuSerif-Italic-3b1"/>
      <use transform="translate(404.788807 80.632812)scale(0.49)" xlink:href="#DejaVuSerif-2a"/>
      <use transform="translate(440.398299 55.19875)scale(0.7)" xlink:href="#DejaVuSerif-29"/>
      <use transform="translate(251.341797 -40.145)scale(0.7)" xlink:href="#DejaVuSerif-Italic-5a"/>
      <use transform="translate(299.979492 -40.145)scale(0.7)" xlink:href="#DejaVuSerif-28"/>
      <use transform="translate(327.289062 -40.145)scale(0.7)" xlink:href="#DejaVuSerif-Italic-3b1"/>
      <use transform="translate(374.55957 -40.145)scale(0.7)" xlink:href="#DejaVuSerif-29"/>
      <path d="M 185.341797 19.294063 
L 185.341797 25.544063 
L 467.70787 25.544063 
L 467.70787 19.294063 
L 185.341797 19.294063 
z
"/>
     </g>
    </g>
    <g id="line2d_30">
     <path d="M 314.02 205.425062 
L 334.02 205.425062 
" style="fill:none;stroke:#9467bd;stroke-linecap:square;stroke-width:1.5;"/>
    </g>
    <g id="line2d_31"/>
    <g id="text_21">
     <!-- $1 - \frac{(\alpha - \alpha^*)^2}{Z(\alpha)^2}$ -->
     <g transform="translate(342.02 208.925062)scale(0.1 -0.1)">
      <use transform="translate(0 0.4425)" xlink:href="#DejaVuSerif-31"/>
      <use transform="translate(82.587891 0.4425)" xlink:href="#DejaVuSerif-2212"/>
      <use transform="translate(185.341797 55.19875)scale(0.7)" xlink:href="#DejaVuSerif-28"/>
      <use transform="translate(212.651367 55.19875)scale(0.7)" xlink:href="#DejaVuSerif-Italic-3b1"/>
      <use transform="translate(273.197266 55.19875)scale(0.7)" xlink:href="#DejaVuSerif-2212"/>
      <use transform="translate(345.125 55.19875)scale(0.7)" xlink:href="#DejaVuSerif-Italic-3b1"/>
      <use transform="translate(404.788807 80.632812)scale(0.49)" xlink:href="#DejaVuSerif-2a"/>
      <use transform="translate(440.398299 55.19875)scale(0.7)" xlink:href="#DejaVuSerif-29"/>
      <use transform="translate(468.343721 80.632812)scale(0.49)" xlink:href="#DejaVuSerif-32"/>
      <use transform="translate(251.341797 -48.757187)scale(0.7)" xlink:href="#DejaVuSerif-Italic-5a"/>
      <use transform="translate(299.979492 -48.757187)scale(0.7)" xlink:href="#DejaVuSerif-28"/>
      <use transform="translate(327.289062 -48.757187)scale(0.7)" xlink:href="#DejaVuSerif-Italic-3b1"/>
      <use transform="translate(374.55957 -48.757187)scale(0.7)" xlink:href="#DejaVuSerif-29"/>
      <use transform="translate(402.504992 -23.323125)scale(0.49)" xlink:href="#DejaVuSerif-32"/>
      <path d="M 185.341797 19.294063 
L 185.341797 25.544063 
L 501.335733 25.544063 
L 501.335733 19.294063 
L 185.341797 19.294063 
z
"/>
     </g>
    </g>
   </g>
  </g>
 </g>
 <defs>
  <clipPath id="pb61b377a2a">
   <rect height="260.928" width="357.12" x="57.6" y="41.472"/>
  </clipPath>
 </defs>
</svg>
